<?xml version="1.0" encoding="utf-8"?>
<!-- Generator: Adobe Illustrator 24.3.0, SVG Export Plug-In . SVG Version: 6.00 Build 0)  -->
<svg version="1.1" id="Capa_1" xmlns="http://www.w3.org/2000/svg" xmlns:xlink="http://www.w3.org/1999/xlink" x="0px" y="0px"
	 viewBox="0 0 436 139.16" style="enable-background:new 0 0 436 139.16;" xml:space="preserve">
<style type="text/css">
	.st0{fill:#00ABAA;}
	.st1{fill:#D39CC7;}
</style>
<g>
	<g>
		<g>
			<g>
				<path class="st0" d="M8.23,40.23h5.09l37.46,51.01V40.23h5.09v59.32h-5L13.24,48.27v51.27h-5L8.23,40.23L8.23,40.23z"/>
				<path class="st0" d="M57.69,101.37h-7.74L15.07,53.84v47.53H6.42V38.41h7.83l34.71,47.28V38.41h8.73L57.69,101.37L57.69,101.37z
					 M51.79,97.73h2.25V42.05h-1.44v54.76l-40.2-54.76h-2.34v55.68h1.35V42.71L51.79,97.73z"/>
			</g>
			<path class="st0" d="M77.52,97.68c-3.25-1.87-5.77-4.45-7.59-7.76c-1.81-3.3-2.71-7.08-2.71-11.31c0-4.17,0.89-7.92,2.67-11.23
				c1.78-3.3,4.26-5.88,7.45-7.71s6.85-2.75,10.97-2.75c4.29,0,8.04,0.87,11.23,2.58c3.19,1.72,5.65,4.17,7.37,7.34
				c1.72,3.16,2.58,6.83,2.58,11.01c0,1.18-0.03,2.07-0.08,2.63H72.13c0.39,4.74,2.07,8.5,5.04,11.27
				c2.97,2.77,6.82,4.15,11.57,4.15c2.94,0,5.77-0.56,8.48-1.7c2.71-1.13,4.77-2.63,6.19-4.49l3.3,2.88
				c-1.98,2.49-4.57,4.42-7.76,5.8c-3.2,1.38-6.62,2.07-10.3,2.07C84.48,100.48,80.77,99.55,77.52,97.68z M104.76,76.24
				c-0.06-4.46-1.58-8.06-4.57-10.81c-3-2.74-6.92-4.11-11.78-4.11c-4.57,0-8.32,1.35-11.23,4.03c-2.91,2.69-4.59,6.31-5.04,10.89
				H104.76L104.76,76.24z"/>
			<path class="st0" d="M123.7,95.18c-3.14-3.3-4.7-7.84-4.7-13.6V57.68h4.83v23.65c0,4.57,1.15,8.11,3.43,10.59
				c2.29,2.49,5.52,3.73,9.7,3.73c2.88,0,5.46-0.65,7.76-1.95c2.29-1.3,4.06-3.09,5.3-5.38c1.24-2.29,1.87-4.84,1.87-7.67V57.69
				h4.83v41.86h-4.4l-0.08-7.54c-1.64,2.54-3.83,4.54-6.57,5.97c-2.74,1.44-5.77,2.16-9.11,2.16
				C131.11,100.14,126.83,98.49,123.7,95.18z"/>
			<path class="st0" d="M170.27,57.68h4.4l0.08,8.73c1.47-2.94,3.42-5.21,5.85-6.82c2.43-1.61,5.14-2.41,8.13-2.41
				c1.7,0,3.33,0.22,4.91,0.68s2.97,1.07,4.15,1.87l-2.12,4.15c-2.21-1.35-4.57-2.04-7.11-2.04s-4.84,0.72-6.91,2.16
				c-2.07,1.44-3.67,3.4-4.83,5.89c-1.16,2.49-1.74,5.28-1.74,8.39v21.27h-4.83L170.27,57.68L170.27,57.68z"/>
			<path class="st0" d="M210.52,97.6c-3.28-1.87-5.83-4.46-7.67-7.79s-2.75-7.06-2.75-11.18c0-4.12,0.92-7.85,2.75-11.18
				s4.39-5.93,7.67-7.79c3.28-1.87,7.01-2.8,11.18-2.8c4.18,0,7.91,0.95,11.18,2.83c3.27,1.89,5.83,4.49,7.67,7.79
				c1.84,3.3,2.75,7.02,2.75,11.15c0,4.12-0.92,7.84-2.75,11.15c-1.84,3.3-4.4,5.91-7.67,7.79c-3.28,1.89-7.01,2.83-11.18,2.83
				C217.52,100.4,213.79,99.46,210.52,97.6z M207.04,87.38c1.41,2.63,3.4,4.69,5.97,6.19c2.57,1.5,5.46,2.25,8.68,2.25
				c3.22,0,6.1-0.75,8.65-2.25c2.54-1.5,4.54-3.56,5.97-6.19c1.44-2.63,2.16-5.55,2.16-8.77s-0.72-6.14-2.16-8.77
				s-3.43-4.69-5.97-6.19c-2.54-1.5-5.43-2.25-8.65-2.25c-3.22,0-6.11,0.75-8.68,2.25c-2.58,1.5-4.57,3.56-5.97,6.19
				c-1.41,2.63-2.12,5.55-2.12,8.77C204.93,81.83,205.64,84.76,207.04,87.38z"/>
			<path class="st1" d="M247.97,40.23h10.67l10,24.66l9.15,23.13l19.24-47.79h10.67l-24.49,59.32h-10.67L247.97,40.23z"/>
			<path class="st1" d="M313.65,41.37c1.13-1.1,2.57-1.65,4.32-1.65c1.81,0,3.29,0.55,4.45,1.65c1.16,1.1,1.74,2.53,1.74,4.28
				c0,1.64-0.58,3.01-1.74,4.11c-1.16,1.1-2.64,1.65-4.45,1.65c-1.75,0-3.2-0.55-4.32-1.65c-1.13-1.1-1.7-2.47-1.7-4.11
				C311.96,43.9,312.52,42.47,313.65,41.37z M313.23,57.68h9.49v41.86h-9.49V57.68z"/>
			<path class="st1" d="M341.61,97.76c-3.11-1.81-5.55-4.36-7.33-7.67c-1.78-3.3-2.67-7.13-2.67-11.48c0-4.35,0.89-8.18,2.67-11.48
				c1.78-3.3,4.22-5.86,7.33-7.67s6.64-2.71,10.59-2.71c2.99,0,5.74,0.48,8.22,1.44c2.49,0.96,4.57,2.29,6.27,3.98V40.23h9.49v59.32
				h-8.47l-0.08-5.59c-1.64,2.04-3.8,3.63-6.48,4.79c-2.69,1.16-5.66,1.74-8.94,1.74C348.25,100.48,344.72,99.57,341.61,97.76z
				 M344.66,88.15c2.38,2.46,5.45,3.69,9.24,3.69c3.78,0,6.86-1.23,9.24-3.69c2.38-2.46,3.56-5.63,3.56-9.53s-1.18-7.08-3.56-9.53
				c-2.37-2.46-5.45-3.69-9.24-3.69c-3.78,0-6.86,1.23-9.24,3.69c-2.38,2.46-3.56,5.63-3.56,9.53S342.3,85.69,344.66,88.15z"/>
			<path class="st1" d="M394.96,97.73c-3.14-1.84-5.58-4.42-7.34-7.76c-1.75-3.33-2.63-7.11-2.63-11.35c0-4.23,0.87-8.02,2.63-11.35
				c1.75-3.33,4.2-5.92,7.34-7.76c3.14-1.84,6.74-2.75,10.81-2.75c3.22,0,6.16,0.58,8.82,1.74c2.65,1.16,4.8,2.75,6.44,4.79
				l0.08-5.59h8.48v41.86h-8.48l-0.08-5.59c-1.64,2.04-3.78,3.63-6.44,4.79c-2.66,1.15-5.59,1.74-8.82,1.74
				C401.7,100.48,398.1,99.56,394.96,97.73z M398.05,88.15c2.38,2.46,5.45,3.69,9.24,3.69c3.79,0,6.86-1.23,9.24-3.69
				c2.38-2.46,3.56-5.63,3.56-9.53s-1.18-7.08-3.56-9.53c-2.37-2.46-5.45-3.69-9.24-3.69c-3.79,0-6.86,1.23-9.24,3.69
				c-2.38,2.46-3.56,5.63-3.56,9.53S395.68,85.69,398.05,88.15z"/>
		</g>
	</g>
</g>
</svg>
