<?xml version="1.0" encoding="utf-8"?>
<!-- Generator: Adobe Illustrator 24.3.0, SVG Export Plug-In . SVG Version: 6.00 Build 0)  -->
<svg version="1.1" id="Layer_1" xmlns="http://www.w3.org/2000/svg" xmlns:xlink="http://www.w3.org/1999/xlink" x="0px" y="0px"
	 viewBox="0 0 1986.55 1986.56" style="enable-background:new 0 0 1986.55 1986.56;" xml:space="preserve">
<style type="text/css">
	.st0{fill:#FFFFFF;}
	.st1{fill:#2C7CF2;}
</style>
<circle class="st0" cx="993.27" cy="993.28" r="993.27"/>
<g>
	<g>
		<path class="st1" d="M1153.37,221.85c41.27,0,82.79,2.24,123.92,4.09c26.86,1.1,53.7,4.94,78.91,7.68l-1.9,248.42
			c-7.68,0-13.71,0-19.74,0c-27.26,0-54.52-0.36-81.79-0.36c-20.44,0-40.9,0.2-61.35,0.9c-65.82,2.19-114.27,26.87-117.64,109.13
			c-2.1,59.22-3.61,189.99-3.69,196.87c3.42,0.01,68.48,0.24,133.97,0.24c32.74,0,64.73-0.06,87.03-0.24c17,0,34,0,53.19,0
			c-13.34,95.42-25.55,187-38.87,279.13h-235.26l-5.32,696.99h-289l5.32-698.09H544.81l2.12-277.48h237.45l0.16-20.84
			c0.43-55.94-0.24-111.87,1.83-167.81c0.82-35.1,2.74-71.29,9.04-106.38c16-85,55.48-156.29,126.62-207.29
			c62.3-44.42,133.19-63.07,208.33-64.71C1138.01,221.93,1145.68,221.85,1153.37,221.85z"/>
	</g>
</g>
</svg>
