<?xml version="1.0" encoding="utf-8"?>
<!-- Generator: Adobe Illustrator 24.3.0, SVG Export Plug-In . SVG Version: 6.00 Build 0)  -->
<svg version="1.1" id="Capa_1" xmlns="http://www.w3.org/2000/svg" xmlns:xlink="http://www.w3.org/1999/xlink" x="0px" y="0px"
	 viewBox="0 0 678 216.41" style="enable-background:new 0 0 678 216.41;" xml:space="preserve">
<style type="text/css">
	.st0{fill:#00245E;}
	.st1{fill:#00ABAA;}
	.st2{fill:#D39CC7;}
	.st3{fill:#96D0EE;}
	.st4{fill:#F5C1AE;}
	.st5{fill:#F0BFDA;}
	.st6{fill:#FFF4C3;}
	.st7{fill:#CDE4CA;}
	.st8{fill:none;}
	.st9{fill:#274193;}
</style>
<g>
	<g>
		<path class="st0" d="M244.88,149.4l0.34,0.66c-1.52,0.63-3.01,0.95-4.49,0.95c-0.9,0-1.72-0.16-2.47-0.48
			c-0.73-0.32-1.35-0.75-1.84-1.29c-0.49-0.55-0.86-1.17-1.13-1.85c-0.26-0.69-0.39-1.4-0.39-2.13c0-0.77,0.13-1.51,0.38-2.22
			c0.25-0.71,0.62-1.35,1.09-1.91c0.47-0.56,1.08-1.01,1.83-1.36c0.74-0.34,1.56-0.51,2.46-0.51c1.28,0,2.72,0.3,4.33,0.88
			l-0.33,0.7c-1.53-0.55-2.85-0.82-3.98-0.82c-0.75,0-1.45,0.14-2.09,0.42c-0.64,0.28-1.17,0.68-1.59,1.17
			c-0.41,0.48-0.73,1.04-0.95,1.65c-0.23,0.62-0.33,1.27-0.33,1.94c0,0.64,0.12,1.27,0.35,1.87c0.23,0.61,0.56,1.14,0.98,1.62
			c0.43,0.48,0.97,0.85,1.61,1.13c0.64,0.28,1.34,0.41,2.09,0.41C241.97,150.25,243.35,149.97,244.88,149.4z"/>
		<path class="st0" d="M250.95,150.99c-1.26,0-2.3-0.4-3.13-1.19c-0.41-0.4-0.71-0.88-0.95-1.46c-0.23-0.58-0.34-1.21-0.34-1.91
			c0-1.39,0.4-2.51,1.2-3.35c0.81-0.85,1.84-1.27,3.1-1.27c1.1,0,2.05,0.32,2.87,0.96c0.41,0.32,0.74,0.75,0.97,1.29
			c0.23,0.54,0.35,1.15,0.35,1.82c0,0.19-0.01,0.44-0.05,0.74h-7.64c0.1,1.31,0.5,2.27,1.2,2.88c0.64,0.55,1.43,0.82,2.36,0.82
			c0.99,0,2.02-0.25,3.07-0.75l0.41,0.53c-0.41,0.23-0.94,0.44-1.59,0.62C252.15,150.9,251.54,150.99,250.95,150.99z M247.34,145.98
			h6.92c0-1.11-0.31-1.98-0.93-2.58c-0.62-0.61-1.44-0.91-2.46-0.91c-1.01,0-1.84,0.3-2.47,0.9
			C247.78,144.01,247.42,144.86,247.34,145.98z"/>
		<path class="st0" d="M257.99,150.85h-0.79v-8.88l0.21-0.08l0.58,0.55c0.39-0.16,0.9-0.3,1.51-0.42c0.63-0.14,1.22-0.21,1.76-0.21
			c1.15,0,2.02,0.32,2.65,0.95c0.63,0.63,0.95,1.53,0.95,2.69v5.4h-0.8v-5.38c0-0.96-0.24-1.69-0.73-2.2
			c-0.49-0.5-1.19-0.76-2.09-0.76c-1.08,0-2.16,0.21-3.23,0.63L257.99,150.85L257.99,150.85z"/>
		<path class="st0" d="M269.08,139.4v2.54h2.63v0.66h-2.65v5.68c0,0.26,0,0.44,0.01,0.53c0.01,0.4,0.05,0.67,0.12,0.82
			c0.11,0.25,0.24,0.42,0.41,0.51c0.23,0.11,0.52,0.16,0.87,0.16c0.48,0,0.97-0.13,1.49-0.4l0.26,0.62
			c-0.59,0.31-1.2,0.46-1.84,0.46c-0.71,0-1.24-0.17-1.6-0.5c-0.15-0.15-0.26-0.35-0.34-0.61c-0.08-0.25-0.13-0.5-0.15-0.72
			c-0.02-0.23-0.03-0.53-0.03-0.88v-5.68h-1.55v-0.66h1.55v-2.25L269.08,139.4z"/>
		<path class="st0" d="M274.49,150.85h-0.82v-8.87l0.21-0.08l0.57,0.55c0.23-0.15,0.56-0.3,0.99-0.43c0.44-0.14,0.82-0.21,1.17-0.21
			c0.39,0,0.73,0.03,1.04,0.1c0.3,0.06,0.66,0.19,1.08,0.41l-0.34,0.64c-0.55-0.29-1.17-0.43-1.84-0.43c-0.32,0-0.61,0.03-0.89,0.1
			c-0.28,0.06-0.5,0.14-0.64,0.21c-0.23,0.12-0.41,0.22-0.53,0.3V150.85L274.49,150.85z"/>
		<path class="st0" d="M279.46,146.45c0-0.75,0.12-1.42,0.35-2.02c0.23-0.6,0.55-1.09,0.97-1.47c0.83-0.77,1.89-1.15,3.16-1.15
			c0.83,0,1.58,0.17,2.23,0.52c0.67,0.34,1.2,0.87,1.6,1.58c0.41,0.71,0.61,1.55,0.61,2.54c0,0.7-0.12,1.33-0.35,1.91
			c-0.23,0.58-0.56,1.07-0.98,1.46c-0.86,0.78-1.9,1.17-3.13,1.17s-2.27-0.39-3.13-1.17c-0.41-0.39-0.73-0.87-0.97-1.46
			C279.57,147.78,279.46,147.14,279.46,146.45z M283.9,150.28c0.68,0,1.29-0.15,1.84-0.45c0.53-0.29,0.98-0.73,1.32-1.33
			c0.33-0.59,0.5-1.27,0.5-2.04c0-1.26-0.34-2.22-1.03-2.9c-0.68-0.69-1.56-1.03-2.63-1.03c-1.07,0-1.94,0.34-2.63,1.03
			c-0.69,0.69-1.03,1.65-1.03,2.9c0,1.15,0.35,2.08,1.04,2.78C281.99,149.92,282.86,150.28,283.9,150.28z"/>
		<path class="st0" d="M298.28,150.99c-0.53,0-1.04-0.11-1.55-0.32c-0.5-0.22-0.93-0.52-1.31-0.91c-0.39-0.4-0.69-0.88-0.91-1.47
			c-0.22-0.59-0.33-1.21-0.33-1.89c0-0.7,0.1-1.35,0.32-1.94c0.21-0.59,0.51-1.08,0.88-1.46c0.78-0.79,1.72-1.19,2.84-1.19
			c1.2,0,2.32,0.22,3.37,0.66v-4.11h0.8v12.46l-0.21,0.08l-0.58-0.53c-0.16,0.06-0.37,0.15-0.64,0.24
			c-0.26,0.08-0.64,0.17-1.16,0.25C299.3,150.94,298.79,150.99,298.28,150.99z M298.36,150.28c0.66,0,1.29-0.07,1.89-0.21
			c0.63-0.15,1.09-0.29,1.36-0.43v-3.31v-3.18c-0.99-0.43-2.1-0.64-3.32-0.64c-0.93,0-1.71,0.33-2.33,0.98
			c-0.31,0.32-0.55,0.73-0.72,1.24c-0.17,0.5-0.26,1.06-0.26,1.67c0,0.59,0.09,1.13,0.28,1.63c0.19,0.5,0.44,0.91,0.75,1.24
			C296.68,149.94,297.46,150.28,298.36,150.28z"/>
		<path class="st0" d="M309.04,150.99c-1.26,0-2.3-0.4-3.13-1.19c-0.41-0.4-0.71-0.88-0.95-1.46c-0.23-0.58-0.34-1.21-0.34-1.91
			c0-1.39,0.4-2.51,1.2-3.35c0.81-0.85,1.84-1.27,3.1-1.27c1.1,0,2.05,0.32,2.87,0.96c0.41,0.32,0.74,0.75,0.97,1.29
			c0.23,0.54,0.35,1.15,0.35,1.82c0,0.19-0.01,0.44-0.05,0.74h-7.64c0.1,1.31,0.5,2.27,1.2,2.88c0.64,0.55,1.43,0.82,2.36,0.82
			c0.99,0,2.02-0.25,3.07-0.75l0.41,0.53c-0.41,0.23-0.94,0.44-1.59,0.62C310.24,150.9,309.63,150.99,309.04,150.99z M305.43,145.98
			h6.92c0-1.11-0.31-1.98-0.93-2.58c-0.62-0.61-1.44-0.91-2.46-0.91c-1.01,0-1.84,0.3-2.47,0.9
			C305.87,144.01,305.51,144.86,305.43,145.98z"/>
		<path class="st0" d="M317.91,150.99c-1.11,0-2.25-0.22-3.41-0.66l0.23-0.64c1.12,0.41,2.2,0.62,3.21,0.62
			c0.28,0,0.55-0.03,0.83-0.08s0.56-0.14,0.84-0.26c0.28-0.13,0.51-0.31,0.68-0.56c0.17-0.25,0.26-0.54,0.26-0.88
			c0-0.32-0.06-0.56-0.21-0.74c-0.15-0.22-0.33-0.38-0.53-0.48c-0.28-0.14-0.53-0.25-0.75-0.32c-0.13-0.04-0.26-0.08-0.41-0.11
			l-0.16-0.05c-0.11-0.03-0.2-0.05-0.27-0.06l-0.42-0.11c-0.92-0.24-1.51-0.41-1.75-0.52c-0.75-0.31-1.2-0.73-1.37-1.29
			c-0.06-0.17-0.08-0.38-0.08-0.6c0-0.43,0.09-0.8,0.28-1.12c0.19-0.32,0.44-0.57,0.75-0.76s0.66-0.32,1.05-0.41
			c0.38-0.09,0.79-0.14,1.24-0.14c0.84,0,1.87,0.23,3.1,0.67l-0.24,0.63c-1.08-0.4-2.02-0.6-2.85-0.6c-0.46,0-0.88,0.05-1.25,0.15
			c-0.37,0.1-0.68,0.29-0.91,0.56c-0.24,0.27-0.35,0.61-0.35,1c0,0.46,0.23,0.84,0.69,1.15c0.21,0.13,0.52,0.24,0.93,0.35l0.5,0.13
			c0.05,0.01,0.19,0.05,0.45,0.11l0.53,0.14l0.57,0.15c0.46,0.12,0.83,0.25,1.11,0.41c0.37,0.18,0.66,0.41,0.85,0.69
			c0.22,0.32,0.33,0.7,0.33,1.16c0,0.36-0.07,0.69-0.21,0.97c-0.14,0.28-0.32,0.52-0.54,0.7c-0.23,0.19-0.49,0.34-0.79,0.46
			c-0.31,0.12-0.61,0.21-0.93,0.26C318.58,150.96,318.24,150.99,317.91,150.99z"/>
		<path class="st0" d="M326.79,150.99c-1.11,0-2.05-0.39-2.82-1.18c-0.37-0.39-0.66-0.87-0.88-1.46c-0.21-0.59-0.32-1.23-0.32-1.93
			c0-0.68,0.11-1.31,0.32-1.89c0.22-0.59,0.51-1.08,0.89-1.47c0.38-0.4,0.82-0.7,1.31-0.92c0.49-0.22,1-0.33,1.53-0.33
			c0.53,0,1.04,0.05,1.55,0.14c0.53,0.1,0.93,0.19,1.17,0.26c0.25,0.07,0.47,0.15,0.64,0.23l0.57-0.53l0.21,0.08v8.87h-0.79
			l0.1-0.58C329.16,150.75,328,150.99,326.79,150.99z M326.88,150.28c1.24,0,2.34-0.21,3.32-0.61v-3.18v-3.32
			c-0.27-0.14-0.73-0.28-1.36-0.43c-0.61-0.14-1.24-0.21-1.89-0.21c-0.92,0-1.72,0.35-2.38,1.05c-0.66,0.7-0.99,1.65-0.99,2.84
			c0,0.61,0.09,1.17,0.26,1.67c0.17,0.5,0.41,0.91,0.73,1.22C325.18,149.95,325.96,150.28,326.88,150.28z"/>
		<path class="st0" d="M334.58,150.85h-0.82v-8.87l0.21-0.08l0.57,0.55c0.23-0.15,0.56-0.3,0.99-0.43c0.44-0.14,0.82-0.21,1.17-0.21
			c0.39,0,0.73,0.03,1.04,0.1c0.3,0.06,0.66,0.19,1.08,0.41l-0.34,0.64c-0.55-0.29-1.17-0.43-1.84-0.43c-0.32,0-0.61,0.03-0.89,0.1
			c-0.28,0.06-0.5,0.14-0.64,0.21c-0.23,0.12-0.41,0.22-0.53,0.3L334.58,150.85L334.58,150.85z"/>
		<path class="st0" d="M341.11,150.85h-0.82v-8.87l0.21-0.08l0.57,0.55c0.23-0.15,0.56-0.3,0.99-0.43c0.44-0.14,0.82-0.21,1.17-0.21
			c0.39,0,0.73,0.03,1.04,0.1c0.3,0.06,0.66,0.19,1.08,0.41l-0.34,0.64c-0.55-0.29-1.17-0.43-1.84-0.43c-0.32,0-0.61,0.03-0.89,0.1
			c-0.28,0.06-0.5,0.14-0.64,0.21c-0.23,0.12-0.41,0.22-0.53,0.3L341.11,150.85L341.11,150.85z"/>
		<path class="st0" d="M346.07,146.45c0-0.75,0.12-1.42,0.35-2.02c0.23-0.6,0.55-1.09,0.97-1.47c0.83-0.77,1.89-1.15,3.16-1.15
			c0.83,0,1.58,0.17,2.23,0.52c0.67,0.34,1.2,0.87,1.6,1.58c0.41,0.71,0.61,1.55,0.61,2.54c0,0.7-0.12,1.33-0.35,1.91
			c-0.23,0.58-0.56,1.07-0.98,1.46c-0.86,0.78-1.9,1.17-3.13,1.17c-1.23,0-2.27-0.39-3.13-1.17c-0.41-0.39-0.73-0.87-0.97-1.46
			C346.19,147.78,346.07,147.14,346.07,146.45z M350.52,150.28c0.68,0,1.29-0.15,1.84-0.45c0.53-0.29,0.98-0.73,1.32-1.33
			c0.33-0.59,0.5-1.27,0.5-2.04c0-1.26-0.34-2.22-1.03-2.9c-0.68-0.69-1.56-1.03-2.63-1.03c-1.07,0-1.94,0.34-2.63,1.03
			c-0.69,0.69-1.03,1.65-1.03,2.9c0,1.15,0.35,2.08,1.04,2.78C348.61,149.92,349.48,150.28,350.52,150.28z"/>
		<path class="st0" d="M358.12,138.35v12.51h-0.8v-12.51H358.12z"/>
		<path class="st0" d="M361.95,138.35v12.51h-0.8v-12.51H361.95z"/>
		<path class="st0" d="M364.3,146.45c0-0.75,0.12-1.42,0.34-2.02c0.23-0.6,0.55-1.09,0.97-1.47c0.83-0.77,1.89-1.15,3.16-1.15
			c0.83,0,1.58,0.17,2.23,0.52c0.67,0.34,1.2,0.87,1.6,1.58c0.41,0.71,0.61,1.55,0.61,2.54c0,0.7-0.12,1.33-0.35,1.91
			c-0.23,0.58-0.56,1.07-0.98,1.46c-0.86,0.78-1.9,1.17-3.13,1.17s-2.27-0.39-3.13-1.17c-0.41-0.39-0.73-0.87-0.97-1.46
			C364.42,147.78,364.3,147.14,364.3,146.45z M368.75,150.28c0.68,0,1.29-0.15,1.84-0.45c0.53-0.29,0.98-0.73,1.32-1.33
			c0.33-0.59,0.5-1.27,0.5-2.04c0-1.26-0.34-2.22-1.03-2.9c-0.68-0.69-1.56-1.03-2.63-1.03c-1.07,0-1.94,0.34-2.63,1.03
			c-0.69,0.69-1.03,1.65-1.03,2.9c0,1.15,0.35,2.08,1.04,2.78C366.83,149.92,367.7,150.28,368.75,150.28z"/>
		<path class="st0" d="M380.14,150.85v-8.22h-1.56v-0.69h1.56v-1.04c0-0.21,0.01-0.44,0.02-0.67c0.03-0.5,0.11-0.86,0.22-1.08
			c0.15-0.31,0.39-0.54,0.71-0.7c0.33-0.15,0.79-0.23,1.39-0.23c0.68,0,1.27,0.14,1.8,0.4l-0.32,0.61c-0.4-0.21-0.88-0.32-1.45-0.32
			c-0.42,0-0.72,0.04-0.9,0.11c-0.1,0.04-0.17,0.07-0.21,0.09c-0.05,0.02-0.09,0.05-0.14,0.1s-0.09,0.1-0.12,0.16
			c-0.1,0.18-0.16,0.39-0.18,0.61l-0.03,0.41v0.51v1.04h2.62v0.69h-2.62v8.22L380.14,150.85L380.14,150.85z"/>
		<path class="st0" d="M387.63,138.58l-1.67,2.29h-0.73v-0.08l1.48-2.29h0.93L387.63,138.58L387.63,138.58z M386.07,150.85h-0.8
			v-8.91h0.8V150.85z"/>
		<path class="st0" d="M391.57,150.99c-1.11,0-2.25-0.22-3.42-0.66l0.23-0.64c1.12,0.41,2.2,0.62,3.21,0.62
			c0.28,0,0.55-0.03,0.83-0.08s0.55-0.14,0.84-0.26c0.28-0.13,0.51-0.31,0.68-0.56c0.17-0.25,0.26-0.54,0.26-0.88
			c0-0.32-0.06-0.56-0.21-0.74c-0.15-0.22-0.33-0.38-0.53-0.48c-0.28-0.14-0.53-0.25-0.75-0.32c-0.13-0.04-0.26-0.08-0.41-0.11
			l-0.16-0.05c-0.11-0.03-0.2-0.05-0.27-0.06l-0.42-0.11c-0.92-0.24-1.51-0.41-1.75-0.52c-0.75-0.31-1.2-0.73-1.37-1.29
			c-0.06-0.17-0.08-0.38-0.08-0.6c0-0.43,0.09-0.8,0.28-1.12c0.19-0.32,0.44-0.57,0.75-0.76s0.66-0.32,1.05-0.41
			c0.38-0.09,0.79-0.14,1.24-0.14c0.84,0,1.87,0.23,3.1,0.67l-0.25,0.63c-1.07-0.4-2.02-0.6-2.85-0.6c-0.46,0-0.88,0.05-1.25,0.15
			c-0.37,0.1-0.68,0.29-0.91,0.56c-0.23,0.27-0.35,0.61-0.35,1c0,0.46,0.23,0.84,0.69,1.15c0.21,0.13,0.52,0.24,0.93,0.35l0.5,0.13
			c0.05,0.01,0.19,0.05,0.45,0.11l0.53,0.14l0.57,0.15c0.46,0.12,0.83,0.25,1.11,0.41c0.37,0.18,0.66,0.41,0.85,0.69
			c0.22,0.32,0.33,0.7,0.33,1.16c0,0.36-0.07,0.69-0.21,0.97c-0.14,0.28-0.32,0.52-0.54,0.7c-0.22,0.19-0.49,0.34-0.79,0.46
			c-0.31,0.12-0.61,0.21-0.93,0.26C392.22,150.96,391.89,150.99,391.57,150.99z"/>
		<path class="st0" d="M397.52,139.25c0.18,0,0.33,0.06,0.47,0.17c0.13,0.11,0.19,0.27,0.19,0.47c0,0.19-0.06,0.35-0.19,0.47
			c-0.13,0.12-0.28,0.18-0.47,0.18c-0.19,0-0.35-0.06-0.48-0.17c-0.13-0.12-0.19-0.27-0.19-0.47s0.06-0.35,0.19-0.47
			C397.18,139.3,397.33,139.25,397.52,139.25z M397.94,150.85h-0.8v-8.91h0.8V150.85z"/>
		<path class="st0" d="M407.47,149.63l0.28,0.61c-1.07,0.5-2.22,0.75-3.45,0.75c-1.11,0-2.06-0.41-2.87-1.22
			c-0.39-0.4-0.69-0.89-0.91-1.47c-0.23-0.59-0.33-1.22-0.33-1.9c0-0.71,0.11-1.37,0.33-1.96c0.22-0.6,0.53-1.08,0.91-1.46
			c0.79-0.78,1.73-1.17,2.84-1.17c0.97,0,2.07,0.23,3.31,0.67l-0.25,0.62c-1.09-0.39-2.09-0.58-3.01-0.58
			c-0.95,0-1.75,0.33-2.39,1.01c-0.63,0.67-0.95,1.62-0.95,2.85c0,0.59,0.09,1.13,0.27,1.64c0.18,0.5,0.43,0.91,0.75,1.24
			c0.64,0.68,1.44,1.01,2.38,1.01C405.34,150.28,406.38,150.06,407.47,149.63z"/>
		<path class="st0" d="M409.14,146.45c0-0.75,0.12-1.42,0.34-2.02c0.23-0.6,0.55-1.09,0.97-1.47c0.83-0.77,1.89-1.15,3.16-1.15
			c0.83,0,1.58,0.17,2.23,0.52c0.67,0.34,1.2,0.87,1.6,1.58c0.41,0.71,0.61,1.55,0.61,2.54c0,0.7-0.12,1.33-0.35,1.91
			c-0.23,0.58-0.56,1.07-0.98,1.46c-0.86,0.78-1.9,1.17-3.13,1.17c-1.23,0-2.27-0.39-3.13-1.17c-0.41-0.39-0.73-0.87-0.97-1.46
			C409.26,147.78,409.14,147.14,409.14,146.45z M413.58,150.28c0.68,0,1.29-0.15,1.84-0.45c0.53-0.29,0.98-0.73,1.32-1.33
			c0.33-0.59,0.5-1.27,0.5-2.04c0-1.26-0.34-2.22-1.03-2.9c-0.68-0.69-1.56-1.03-2.63-1.03c-1.07,0-1.94,0.34-2.63,1.03
			c-0.68,0.69-1.03,1.65-1.03,2.9c0,1.15,0.35,2.08,1.04,2.78C411.67,149.92,412.54,150.28,413.58,150.28z"/>
		<path class="st0" d="M421.87,149.85l-1.35,2.85h-0.67v-0.08l1.13-2.87h0.89L421.87,149.85L421.87,149.85z"/>
		<path class="st0" d="M436.6,149.63l0.28,0.61c-1.07,0.5-2.22,0.75-3.45,0.75c-1.11,0-2.06-0.41-2.87-1.22
			c-0.39-0.4-0.69-0.89-0.91-1.47c-0.23-0.59-0.33-1.22-0.33-1.9c0-0.71,0.11-1.37,0.33-1.96c0.22-0.6,0.53-1.08,0.91-1.46
			c0.79-0.78,1.73-1.17,2.84-1.17c0.97,0,2.07,0.23,3.31,0.67l-0.25,0.62c-1.09-0.39-2.09-0.58-3.01-0.58
			c-0.95,0-1.75,0.33-2.39,1.01c-0.63,0.67-0.95,1.62-0.95,2.85c0,0.59,0.09,1.13,0.27,1.64c0.18,0.5,0.43,0.91,0.75,1.24
			c0.64,0.68,1.44,1.01,2.38,1.01C434.47,150.28,435.51,150.06,436.6,149.63z"/>
		<path class="st0" d="M438.27,146.45c0-0.75,0.12-1.42,0.34-2.02c0.23-0.6,0.55-1.09,0.97-1.47c0.83-0.77,1.89-1.15,3.16-1.15
			c0.83,0,1.58,0.17,2.23,0.52c0.67,0.34,1.2,0.87,1.6,1.58c0.41,0.71,0.61,1.55,0.61,2.54c0,0.7-0.12,1.33-0.35,1.91
			c-0.23,0.58-0.56,1.07-0.98,1.46c-0.86,0.78-1.9,1.17-3.13,1.17s-2.27-0.39-3.13-1.17c-0.41-0.39-0.73-0.87-0.97-1.46
			C438.38,147.78,438.27,147.14,438.27,146.45z M442.71,150.28c0.68,0,1.29-0.15,1.84-0.45c0.53-0.29,0.98-0.73,1.32-1.33
			c0.33-0.59,0.5-1.27,0.5-2.04c0-1.26-0.34-2.22-1.03-2.9c-0.68-0.69-1.56-1.03-2.63-1.03c-1.07,0-1.94,0.34-2.63,1.03
			c-0.69,0.69-1.03,1.65-1.03,2.9c0,1.15,0.35,2.08,1.04,2.78C440.8,149.92,441.67,150.28,442.71,150.28z"/>
		<path class="st0" d="M452.91,154.64c-1.02,0-2.17-0.2-3.43-0.61l0.23-0.71c1.04,0.4,2.09,0.6,3.18,0.6c1.08,0,1.91-0.19,2.5-0.58
			c0.57-0.38,0.86-1.04,0.88-1.97v-0.61l0.1-0.53c-0.65,0.26-1.23,0.45-1.75,0.56c-0.51,0.1-1.08,0.15-1.73,0.15
			c-0.53,0-1.06-0.1-1.55-0.32c-0.5-0.21-0.93-0.52-1.31-0.91c-0.38-0.4-0.68-0.88-0.89-1.47c-0.21-0.58-0.32-1.2-0.32-1.88
			c0-0.67,0.11-1.29,0.32-1.87c0.22-0.58,0.51-1.07,0.88-1.46c0.37-0.4,0.8-0.7,1.29-0.91c0.49-0.21,1-0.32,1.53-0.32
			c1.17,0,2.31,0.21,3.39,0.63l0.57-0.54l0.21,0.08v9.4c0,1.08-0.35,1.89-1.06,2.44C455.28,154.37,454.25,154.64,452.91,154.64z
			 M453,150.25c0.6,0,1.13-0.05,1.61-0.14c0.52-0.1,1.08-0.25,1.67-0.48v-3.37v-3.11c-0.4-0.19-0.89-0.34-1.49-0.46
			c-0.6-0.12-1.21-0.18-1.84-0.18c-0.91,0-1.69,0.35-2.34,1.06c-0.64,0.71-0.97,1.64-0.97,2.81c0,0.57,0.09,1.11,0.28,1.6
			c0.19,0.5,0.44,0.91,0.75,1.24C451.31,149.91,452.09,150.25,453,150.25z"/>
		<path class="st0" d="M460.63,150.85h-0.79v-8.88l0.21-0.08l0.58,0.55c0.39-0.16,0.9-0.3,1.51-0.42c0.63-0.14,1.22-0.21,1.76-0.21
			c1.15,0,2.02,0.32,2.65,0.95c0.63,0.63,0.95,1.53,0.95,2.69v5.4h-0.8v-5.38c0-0.96-0.24-1.69-0.73-2.2
			c-0.49-0.5-1.19-0.76-2.09-0.76c-1.08,0-2.16,0.21-3.23,0.63L460.63,150.85L460.63,150.85z"/>
		<path class="st0" d="M470.56,139.25c0.18,0,0.33,0.06,0.47,0.17c0.13,0.11,0.19,0.27,0.19,0.47c0,0.19-0.06,0.35-0.19,0.47
			c-0.13,0.12-0.28,0.18-0.47,0.18c-0.19,0-0.35-0.06-0.48-0.17c-0.13-0.12-0.19-0.27-0.19-0.47s0.06-0.35,0.19-0.47
			C470.2,139.3,470.36,139.25,470.56,139.25z M470.96,150.85h-0.8v-8.91h0.8V150.85z"/>
		<path class="st0" d="M475.31,139.4v2.54h2.63v0.66h-2.65v5.68c0,0.26,0,0.44,0.01,0.53c0.01,0.4,0.05,0.67,0.12,0.82
			c0.11,0.25,0.24,0.42,0.41,0.51c0.23,0.11,0.52,0.16,0.87,0.16c0.48,0,0.98-0.13,1.49-0.4l0.26,0.62
			c-0.59,0.31-1.2,0.46-1.84,0.46c-0.71,0-1.24-0.17-1.6-0.5c-0.15-0.15-0.26-0.35-0.34-0.61c-0.08-0.25-0.13-0.5-0.15-0.72
			c-0.02-0.23-0.03-0.53-0.03-0.88v-5.68h-1.55v-0.66h1.55v-2.25L475.31,139.4z"/>
		<path class="st0" d="M480.3,139.25c0.18,0,0.33,0.06,0.47,0.17c0.13,0.11,0.19,0.27,0.19,0.47c0,0.19-0.06,0.35-0.19,0.47
			c-0.13,0.12-0.28,0.18-0.47,0.18c-0.19,0-0.35-0.06-0.48-0.17c-0.13-0.12-0.19-0.27-0.19-0.47s0.06-0.35,0.19-0.47
			C479.95,139.3,480.11,139.25,480.3,139.25z M480.71,150.85h-0.8v-8.91h0.8V150.85z"/>
		<path class="st0" d="M489.33,144.53l1.11-2.59h0.88l-3.85,8.91h-0.86l-3.85-8.91h0.88l1.01,2.37l2.38,5.62L489.33,144.53z"/>
		<path class="st0" d="M492.5,146.45c0-0.75,0.12-1.42,0.34-2.02c0.23-0.6,0.55-1.09,0.97-1.47c0.83-0.77,1.89-1.15,3.16-1.15
			c0.83,0,1.58,0.17,2.23,0.52c0.67,0.34,1.2,0.87,1.6,1.58c0.41,0.71,0.61,1.55,0.61,2.54c0,0.7-0.12,1.33-0.35,1.91
			c-0.23,0.58-0.56,1.07-0.98,1.46c-0.86,0.78-1.9,1.17-3.13,1.17c-1.23,0-2.27-0.39-3.13-1.17c-0.41-0.39-0.73-0.87-0.97-1.46
			C492.61,147.78,492.5,147.14,492.5,146.45z M496.95,150.28c0.68,0,1.29-0.15,1.84-0.45c0.53-0.29,0.98-0.73,1.32-1.33
			c0.33-0.59,0.5-1.27,0.5-2.04c0-1.26-0.34-2.22-1.03-2.9c-0.68-0.69-1.56-1.03-2.63-1.03c-1.07,0-1.94,0.34-2.63,1.03
			c-0.69,0.69-1.03,1.65-1.03,2.9c0,1.15,0.35,2.08,1.04,2.78C495.03,149.92,495.9,150.28,496.95,150.28z"/>
		<path class="st0" d="M513.24,144.34l0.99-2.4h0.91l-5.37,12.56h-0.88l1.54-3.61l-3.81-8.95h0.88l0.9,2.23l2.47,5.89L513.24,144.34
			z"/>
		<path class="st0" d="M524.66,150.99c-1.26,0-2.31-0.4-3.13-1.19c-0.41-0.4-0.71-0.88-0.95-1.46c-0.23-0.58-0.34-1.21-0.34-1.91
			c0-1.39,0.4-2.51,1.2-3.35c0.81-0.85,1.84-1.27,3.1-1.27c1.1,0,2.05,0.32,2.87,0.96c0.41,0.32,0.74,0.75,0.97,1.29
			c0.23,0.54,0.35,1.15,0.35,1.82c0,0.19-0.01,0.44-0.05,0.74h-7.64c0.1,1.31,0.5,2.27,1.2,2.88c0.64,0.55,1.43,0.82,2.36,0.82
			c0.99,0,2.02-0.25,3.07-0.75l0.41,0.53c-0.41,0.23-0.94,0.44-1.59,0.62C525.87,150.9,525.25,150.99,524.66,150.99z M521.06,145.98
			h6.92c0-1.11-0.31-1.98-0.93-2.58c-0.62-0.61-1.44-0.91-2.46-0.91c-1.01,0-1.84,0.3-2.47,0.9
			C521.49,144.01,521.13,144.86,521.06,145.98z"/>
		<path class="st0" d="M540.46,141.81c0.92,0,1.68,0.32,2.27,0.97c0.59,0.63,0.88,1.53,0.88,2.68v5.4h-0.8v-5.38
			c0-0.93-0.23-1.66-0.68-2.18c-0.44-0.52-1.01-0.77-1.7-0.77c-0.66,0-1.2,0.08-1.65,0.24c-0.45,0.17-0.97,0.43-1.54,0.8
			c0.23,0.55,0.35,1.18,0.35,1.89v5.4h-0.79v-5.38c0-0.94-0.21-1.67-0.64-2.18c-0.41-0.52-0.95-0.77-1.6-0.77
			c-0.97,0-1.92,0.21-2.86,0.63v7.7h-0.79v-8.88l0.21-0.08l0.58,0.55c0.37-0.16,0.82-0.3,1.35-0.43c0.53-0.14,1.06-0.21,1.55-0.21
			c0.99,0,1.76,0.39,2.31,1.17C538.08,142.2,539.26,141.81,540.46,141.81z"/>
		<path class="st0" d="M545.73,146.45c0-0.75,0.12-1.42,0.34-2.02c0.23-0.6,0.55-1.09,0.97-1.47c0.83-0.77,1.89-1.15,3.16-1.15
			c0.83,0,1.58,0.17,2.23,0.52c0.67,0.34,1.2,0.87,1.6,1.58c0.41,0.71,0.61,1.55,0.61,2.54c0,0.7-0.12,1.33-0.35,1.91
			c-0.23,0.58-0.56,1.07-0.98,1.46c-0.86,0.78-1.9,1.17-3.13,1.17c-1.23,0-2.27-0.39-3.13-1.17c-0.41-0.39-0.73-0.87-0.97-1.46
			C545.85,147.78,545.73,147.14,545.73,146.45z M550.18,150.28c0.68,0,1.29-0.15,1.84-0.45c0.53-0.29,0.98-0.73,1.32-1.33
			c0.33-0.59,0.5-1.27,0.5-2.04c0-1.26-0.34-2.22-1.03-2.9c-0.68-0.69-1.56-1.03-2.63-1.03c-1.07,0-1.94,0.34-2.63,1.03
			c-0.69,0.69-1.03,1.65-1.03,2.9c0,1.15,0.35,2.08,1.04,2.78C548.27,149.92,549.14,150.28,550.18,150.28z"/>
		<path class="st0" d="M563.6,149.63l0.28,0.61c-1.07,0.5-2.22,0.75-3.45,0.75c-1.11,0-2.06-0.41-2.87-1.22
			c-0.39-0.4-0.69-0.89-0.91-1.47c-0.23-0.59-0.33-1.22-0.33-1.9c0-0.71,0.11-1.37,0.33-1.96c0.22-0.6,0.53-1.08,0.91-1.46
			c0.79-0.78,1.73-1.17,2.84-1.17c0.97,0,2.07,0.23,3.31,0.67l-0.25,0.62c-1.09-0.39-2.09-0.58-3.01-0.58
			c-0.95,0-1.75,0.33-2.39,1.01c-0.63,0.67-0.95,1.62-0.95,2.85c0,0.59,0.09,1.13,0.27,1.64c0.18,0.5,0.43,0.91,0.75,1.24
			c0.64,0.68,1.44,1.01,2.38,1.01C561.48,150.28,562.51,150.06,563.6,149.63z"/>
		<path class="st0" d="M566.22,139.25c0.18,0,0.33,0.06,0.47,0.17c0.13,0.11,0.19,0.27,0.19,0.47c0,0.19-0.06,0.35-0.19,0.47
			c-0.13,0.12-0.28,0.18-0.47,0.18c-0.19,0-0.35-0.06-0.48-0.17c-0.13-0.12-0.19-0.27-0.19-0.47s0.06-0.35,0.19-0.47
			C565.87,139.3,566.03,139.25,566.22,139.25z M566.63,150.85h-0.8v-8.91h0.8V150.85z"/>
		<path class="st0" d="M568.86,146.45c0-0.75,0.12-1.42,0.34-2.02c0.23-0.6,0.55-1.09,0.97-1.47c0.83-0.77,1.89-1.15,3.16-1.15
			c0.83,0,1.58,0.17,2.23,0.52c0.67,0.34,1.2,0.87,1.6,1.58c0.41,0.71,0.61,1.55,0.61,2.54c0,0.7-0.12,1.33-0.35,1.91
			c-0.23,0.58-0.56,1.07-0.98,1.46c-0.86,0.78-1.9,1.17-3.13,1.17c-1.23,0-2.27-0.39-3.13-1.17c-0.41-0.39-0.73-0.87-0.97-1.46
			C568.98,147.78,568.86,147.14,568.86,146.45z M573.31,150.28c0.68,0,1.29-0.15,1.84-0.45c0.53-0.29,0.98-0.73,1.32-1.33
			c0.33-0.59,0.5-1.27,0.5-2.04c0-1.26-0.34-2.22-1.03-2.9c-0.68-0.69-1.56-1.03-2.63-1.03c-1.07,0-1.94,0.34-2.63,1.03
			c-0.69,0.69-1.03,1.65-1.03,2.9c0,1.15,0.35,2.08,1.04,2.78C571.4,149.92,572.27,150.28,573.31,150.28z"/>
		<path class="st0" d="M580.78,150.85h-0.79v-8.88l0.21-0.08l0.58,0.55c0.39-0.16,0.9-0.3,1.51-0.42c0.63-0.14,1.22-0.21,1.76-0.21
			c1.15,0,2.02,0.32,2.65,0.95c0.63,0.63,0.95,1.53,0.95,2.69v5.4h-0.8v-5.38c0-0.96-0.24-1.69-0.73-2.2
			c-0.49-0.5-1.19-0.76-2.09-0.76c-1.08,0-2.16,0.21-3.23,0.63L580.78,150.85L580.78,150.85z"/>
		<path class="st0" d="M593.79,150.99c-1.11,0-2.05-0.39-2.82-1.18c-0.37-0.39-0.66-0.87-0.88-1.46c-0.21-0.59-0.32-1.23-0.32-1.93
			c0-0.68,0.11-1.31,0.32-1.89c0.22-0.59,0.52-1.08,0.89-1.47c0.38-0.4,0.82-0.7,1.31-0.92c0.49-0.22,1-0.33,1.53-0.33
			c0.53,0,1.04,0.05,1.55,0.14c0.53,0.1,0.93,0.19,1.17,0.26c0.25,0.07,0.47,0.15,0.64,0.23l0.57-0.53l0.21,0.08v8.87h-0.79
			l0.1-0.58C596.15,150.75,594.99,150.99,593.79,150.99z M593.87,150.28c1.24,0,2.34-0.21,3.32-0.61v-3.18v-3.32
			c-0.27-0.14-0.73-0.28-1.36-0.43c-0.61-0.14-1.24-0.21-1.89-0.21c-0.92,0-1.71,0.35-2.38,1.05c-0.66,0.7-0.99,1.65-0.99,2.84
			c0,0.61,0.09,1.17,0.26,1.67c0.17,0.5,0.41,0.91,0.73,1.22C592.18,149.95,592.96,150.28,593.87,150.28z"/>
		<path class="st0" d="M601.68,138.35v12.51h-0.8v-12.51H601.68z"/>
	</g>
	<g>
		<g>
			<g>
				<path class="st1" d="M235.12,74.69h4.42l32.59,44.38V74.69h4.42v51.6h-4.35l-32.73-44.61v44.61h-4.35L235.12,74.69L235.12,74.69
					z"/>
				<path class="st1" d="M278.14,127.88h-6.74l-30.34-41.35v41.35h-7.52V73.1h6.81l30.2,41.13V73.1h7.59L278.14,127.88
					L278.14,127.88z M273.01,124.71h1.96V76.27h-1.26v47.64l-34.97-47.64h-2.03v48.44h1.18V76.85L273.01,124.71z"/>
			</g>
			<path class="st1" d="M295.39,124.67c-2.83-1.62-5.02-3.87-6.6-6.75c-1.58-2.87-2.36-6.16-2.36-9.84c0-3.63,0.77-6.89,2.32-9.77
				c1.55-2.87,3.71-5.11,6.48-6.71c2.78-1.6,5.96-2.4,9.54-2.4c3.73,0,6.99,0.75,9.77,2.25c2.78,1.5,4.91,3.63,6.41,6.38
				c1.5,2.75,2.25,5.94,2.25,9.58c0,1.03-0.03,1.8-0.07,2.29h-32.44c0.34,4.13,1.8,7.4,4.39,9.81c2.58,2.41,5.94,3.61,10.06,3.61
				c2.56,0,5.02-0.49,7.37-1.47c2.36-0.98,4.15-2.29,5.38-3.91l2.87,2.5c-1.72,2.16-3.97,3.84-6.75,5.05
				c-2.78,1.2-5.76,1.8-8.96,1.8C301.45,127.1,298.22,126.29,295.39,124.67z M319.1,106.02c-0.05-3.88-1.38-7.01-3.98-9.4
				c-2.61-2.38-6.02-3.57-10.24-3.57c-3.98,0-7.24,1.17-9.77,3.5c-2.53,2.34-3.99,5.49-4.39,9.47H319.1L319.1,106.02z"/>
			<path class="st1" d="M335.58,122.49c-2.73-2.87-4.09-6.82-4.09-11.84V89.87h4.2v20.57c0,3.98,1,7.05,2.99,9.21
				s4.8,3.25,8.44,3.25c2.5,0,4.75-0.57,6.75-1.69c1.99-1.13,3.53-2.69,4.61-4.68c1.08-1.99,1.62-4.21,1.62-6.67V89.88h4.2v36.42
				h-3.83l-0.07-6.56c-1.42,2.21-3.33,3.95-5.71,5.2c-2.38,1.26-5.02,1.88-7.93,1.88C342.02,126.81,338.3,125.37,335.58,122.49z"/>
			<path class="st1" d="M376.09,89.87h3.83l0.07,7.59c1.27-2.56,2.97-4.53,5.09-5.94c2.11-1.4,4.48-2.1,7.08-2.1
				c1.47,0,2.9,0.19,4.28,0.59c1.38,0.4,2.58,0.93,3.61,1.62l-1.84,3.61c-1.92-1.18-3.98-1.77-6.19-1.77s-4.21,0.62-6.01,1.88
				c-1.8,1.26-3.19,2.96-4.2,5.13c-1.01,2.16-1.51,4.6-1.51,7.3v18.51h-4.2L376.09,89.87L376.09,89.87z"/>
			<path class="st1" d="M411.1,124.6c-2.85-1.62-5.07-3.88-6.67-6.78s-2.4-6.14-2.4-9.73c0-3.59,0.8-6.83,2.4-9.73
				s3.82-5.16,6.67-6.78c2.85-1.62,6.1-2.43,9.73-2.43c3.64,0,6.88,0.82,9.73,2.47c2.85,1.65,5.07,3.91,6.67,6.78
				c1.6,2.87,2.4,6.1,2.4,9.7c0,3.59-0.8,6.82-2.4,9.7c-1.6,2.87-3.82,5.14-6.67,6.78c-2.85,1.65-6.1,2.47-9.73,2.47
				C417.2,127.03,413.95,126.21,411.1,124.6z M408.08,115.71c1.23,2.29,2.96,4.08,5.2,5.38c2.23,1.3,4.75,1.96,7.55,1.96
				c2.8,0,5.31-0.65,7.52-1.96c2.21-1.3,3.95-3.1,5.2-5.38c1.26-2.29,1.88-4.83,1.88-7.63s-0.62-5.34-1.88-7.63
				c-1.26-2.29-2.99-4.08-5.2-5.38c-2.21-1.3-4.72-1.96-7.52-1.96c-2.8,0-5.32,0.65-7.55,1.96c-2.24,1.3-3.97,3.1-5.2,5.38
				c-1.23,2.29-1.84,4.83-1.84,7.63C406.24,110.88,406.85,113.43,408.08,115.71z"/>
			<path class="st2" d="M443.69,74.69h9.29l8.7,21.45l7.96,20.12l16.74-41.58h9.29l-21.31,51.6h-9.29L443.69,74.69z"/>
			<path class="st2" d="M500.82,75.68c0.98-0.96,2.23-1.44,3.76-1.44c1.57,0,2.87,0.48,3.87,1.44c1.01,0.96,1.51,2.2,1.51,3.72
				c0,1.42-0.5,2.62-1.51,3.57c-1.01,0.96-2.3,1.44-3.87,1.44c-1.53,0-2.78-0.48-3.76-1.44c-0.99-0.96-1.47-2.15-1.47-3.57
				C499.35,77.88,499.84,76.64,500.82,75.68z M500.46,89.87h8.26v36.42h-8.26V89.87z"/>
			<path class="st2" d="M525.15,124.74c-2.7-1.57-4.83-3.79-6.38-6.67c-1.55-2.87-2.32-6.2-2.32-9.99c0-3.79,0.77-7.12,2.32-9.99
				c1.55-2.87,3.67-5.1,6.38-6.67c2.7-1.57,5.78-2.36,9.21-2.36c2.6,0,4.99,0.42,7.15,1.26c2.16,0.84,3.98,1.99,5.45,3.46v-19.1
				h8.26v51.6h-7.37l-0.07-4.86c-1.42,1.77-3.31,3.16-5.64,4.17c-2.34,1.01-4.93,1.51-7.78,1.51
				C530.93,127.1,527.86,126.31,525.15,124.74z M527.8,116.37c2.07,2.14,4.74,3.21,8.04,3.21c3.29,0,5.97-1.07,8.04-3.21
				c2.07-2.14,3.1-4.9,3.1-8.29c0-3.39-1.03-6.16-3.1-8.29c-2.06-2.14-4.74-3.21-8.04-3.21c-3.29,0-5.97,1.07-8.04,3.21
				c-2.07,2.14-3.1,4.9-3.1,8.29C524.71,111.47,525.74,114.24,527.8,116.37z"/>
			<path class="st2" d="M571.56,124.71c-2.73-1.6-4.86-3.84-6.38-6.75c-1.52-2.9-2.29-6.19-2.29-9.88c0-3.68,0.76-6.98,2.29-9.88
				c1.52-2.9,3.65-5.15,6.38-6.75s5.86-2.4,9.4-2.4c2.8,0,5.36,0.5,7.67,1.51c2.31,1.01,4.18,2.4,5.6,4.17l0.07-4.86h7.37v36.42
				h-7.37l-0.07-4.86c-1.42,1.77-3.29,3.16-5.6,4.17c-2.31,1-4.86,1.51-7.67,1.51C577.42,127.1,574.29,126.3,571.56,124.71z
				 M574.25,116.37c2.07,2.14,4.74,3.21,8.04,3.21s5.97-1.07,8.04-3.21c2.07-2.14,3.1-4.9,3.1-8.29c0-3.39-1.03-6.16-3.1-8.29
				c-2.06-2.14-4.74-3.21-8.04-3.21s-5.97,1.07-8.04,3.21c-2.07,2.14-3.1,4.9-3.1,8.29C571.15,111.47,572.18,114.24,574.25,116.37z"
				/>
		</g>
	</g>
	<g>
		<circle class="st3" cx="92.72" cy="48.93" r="7.06"/>
		<circle class="st3" cx="79.27" cy="137.33" r="7.06"/>
		<circle class="st4" cx="79.27" cy="163.59" r="7.06"/>
		<circle class="st5" cx="70.66" cy="88.86" r="4.67"/>
		<circle class="st4" cx="90.66" cy="102.35" r="5.69"/>
		<circle class="st6" cx="92.81" cy="77.03" r="7.06"/>
		<circle class="st7" cx="63.59" cy="121.3" r="7.06"/>
		<g>
			<path class="st8" d="M119.44,98.16"/>
		</g>
		<g>
			<path class="st2" d="M152.45,80.93c-6.97,0-12.42-9.42-12.42-21.45s5.46-21.45,12.42-21.45c6.97,0,12.42,9.42,12.42,21.45
				S159.42,80.93,152.45,80.93z M152.45,42.13c-3.93,0-8.31,7.12-8.31,17.34s4.39,17.34,8.31,17.34c3.93,0,8.32-7.12,8.32-17.34
				S156.39,42.13,152.45,42.13z"/>
		</g>
		<g>
			<path class="st8" d="M75.99,167.17c1.98,1.85,5.05,1.72,6.84-0.24c1.88-2.07,1.82-5.05-0.18-6.85c-1.94-1.75-5.29-1.89-6.99,0.02
				C73.45,162.6,74.35,165.64,75.99,167.17z"/>
			<path class="st8" d="M83.13,139.74c1.94-2.03,1.81-5.09-0.3-7.06c-1.9-1.79-5.09-1.71-6.89,0.17c-1.92,2-1.82,5.13,0.22,7.09
				C78.13,141.83,81.23,141.73,83.13,139.74z"/>
			<path class="st8" d="M95.49,102.31c-0.05-2.67-2.26-4.8-4.94-4.75c-2.53,0.04-4.77,2.34-4.73,4.85c0.05,2.7,2.23,4.78,4.94,4.73
				C93.37,107.08,95.54,104.86,95.49,102.31z"/>
			<path class="st8" d="M63.33,116.22c-2.72,0.18-4.96,2.68-4.78,5.32c0.2,2.87,2.62,5.05,5.39,4.84c2.69-0.21,4.86-2.7,4.7-5.4
				C68.47,118.22,66.04,116.05,63.33,116.22z"/>
			<path class="st8" d="M70.86,84.62c-2.18-0.02-4.09,1.92-4.11,4.19c-0.03,2.29,1.89,4.28,4.17,4.3c2.21,0.03,4.06-1.96,4.08-4.38
				C75.01,86.44,73.19,84.63,70.86,84.62z"/>
			<path class="st8" d="M92.72,70.81c-3.68,0-6.51,2.83-6.54,6.52c-0.02,3.54,2.98,6.53,6.57,6.57c3.72,0.04,6.5-2.76,6.48-6.52
				C99.23,73.72,96.34,70.81,92.72,70.81z"/>
			<path class="st8" d="M92.74,42.35c-3.69-0.01-6.64,2.94-6.63,6.5c0.01,3.66,3,6.72,6.68,6.65c4.01-0.08,6.74-3.1,6.73-6.5
				C99.5,45.46,96.83,42.36,92.74,42.35z"/>
			<g>
				<path class="st9" d="M115.63,131.67l-0.97-0.68c-0.17-0.11-0.35-0.2-0.53-0.29c-0.13-0.06-0.25-0.13-0.38-0.21l-0.03-0.02
					c-0.12-0.07-0.24-0.14-0.36-0.2c0,18.57,0.01,36.72,0.01,51.92c1.05-0.16,2.15-0.43,3.32-0.82c0.93-0.32,1.89-0.71,2.87-1.17
					c-0.01-1.89-0.01-3.77-0.01-5.66c-0.01-13.16-0.02-26.31-0.03-39.47c-0.08-0.08-0.15-0.17-0.23-0.24
					C117.83,133.35,116.7,132.38,115.63,131.67z"/>
				<path class="st9" d="M119.51,175.24c-0.52,0.08-1.04,0.15-1.56,0.21c-1.59,0.19-3.1,0.32-4.55,0.39c0,0.35,0,0.69,0.01,0.99
					c0.01,1.96-0.37,3.8-1.13,5.54c-1.82,4.14-4.98,6.9-9.32,8.15c-8.85,2.54-19.23-2.87-22.24-11.54c-0.4-1.15-0.54-2.39-0.86-3.57
					c-0.57-2.05-1.76-2.97-3.86-2.63c-3.95,0.64-7.5-0.43-10.77-2.49c-5.16-3.27-8.12-7.86-8.35-13.97
					c1.02-0.11,2.04-0.22,3.07-0.31c2.05-0.18,4.28-1.15,6.09-0.33c1.8,0.82,3.13,2.67,4.66,4.07c0.07,0.06,0.13,0.14,0.2,0.2
					c0.55,0.43,0.65,0.9,0.44,1.6c-1.04,3.46,0.87,7.65,4.17,9.28c3.64,1.8,7.77,0.9,10.19-2.22c2.34-3,2.25-7.12-0.23-10.2
					c-2.34-2.92-6.77-3.81-10.24-1.96c-0.64,0.34-0.99,0.28-1.45-0.16c-1.29-1.24-2.58-2.49-3.94-3.66
					c-0.67-0.57-0.68-0.95-0.08-1.58c1.99-2.08,3.95-4.19,5.88-6.32c0.5-0.55,0.94-0.55,1.6-0.39c3.6,0.91,7.55-0.66,9.37-3.67
					c2.01-3.32,1.44-7.53-1.38-10.23c-2.88-2.75-7.08-3.1-10.39-0.81c-3.17,2.18-4.33,6.34-2.72,9.99c0.48,1.1,0.32,1.73-0.48,2.53
					c-2.36,2.38-4.66,4.82-6.92,7.29c-0.69,0.75-1.47,1.11-2.43,1.2c-1.61,0.15-3.23,0.25-4.84,0.38c0.42-1.55,1.09-3.01,2.02-4.42
					c1.54-2.32,0.73-4.36-1.94-5.09c-1.82-0.5-3.41-1.38-4.78-2.63c-6.3-5.76-7.48-15.77-2.55-22.75c1.8-2.56,4.11-4.57,7.3-5.43
					c0.98-0.26,1.97-0.95,2.2-2.16c0.22-1.19,0.12-2.23-0.99-3.07c-1.45-1.08-2.38-2.65-3.27-4.17c-2.07-3.55-2.68-7.45-1.94-11.47
					c1.11-6.03,4.19-10.68,10.1-12.98c3.07-1.19,3.74-3.34,1.58-5.87c-0.93-1.09-1.67-2.27-2.12-3.63
					C59.6,57.13,67.9,45.7,78.85,45.63c3.16-0.02,4.15-1,4.08-4.16c-0.06-2.84,0.42-5.56,1.86-8.02c3.47-5.92,8.85-8.65,15.54-8.58
					c8.53,0.08,13.39,6.75,13.09,13.19c-0.12,2.5-0.03,5,0.02,7.5c0.01,0.71-0.16,1-0.94,1c-3.02-0.03-6.04,0-9.06,0.03
					c-0.58,0.01-0.82-0.15-1.08-0.76c-0.8-1.84-1.75-3.64-3.55-4.75c-2.34-1.44-4.71-2.27-7.63-1.69c-2.65,0.53-4.89,1.49-6.42,3.64
					c-2.28,3.21-2.67,6.78-0.84,10.3c1.78,3.42,4.65,5.4,8.67,5.43c4.37,0.04,8-2.27,9.68-6.28c0.24-0.59,0.48-0.91,1.18-0.9
					c2.97,0.03,5.94,0.03,8.92-0.01c0.83-0.01,1.02,0.29,1.02,1.07c-0.01,7.17,0.01,14.34,0.05,21.51c0,0.73-0.2,0.99-0.95,0.99
					c-2.97-0.03-5.94-0.02-8.92,0.01c-0.66,0.01-0.96-0.21-1.22-0.85c-1.96-4.91-6.74-7.57-11.66-6.48
					c-5.84,1.29-8.31,6.26-7.78,10.55c0.1,0.83-0.21,1.28-0.89,1.71c-1.64,1.03-3.25,2.09-4.8,3.25c-0.71,0.53-1.11,0.59-1.86-0.01
					c-2.31-1.85-4.91-2.09-7.57-0.82c-3.12,1.51-4.64,5.07-3.66,8.34c0.96,3.23,4.06,5.4,7.28,5.12c3.6-0.32,6.13-2.85,6.46-6.52
					c0.06-0.67,0.24-1.1,0.84-1.48c1.83-1.17,3.63-2.37,5.37-3.66c0.77-0.57,1.14-0.48,1.82,0.17c5.22,4.91,13.64,3.07,16.29-3.57
					c0.34-0.85,0.79-0.99,1.56-0.98c2.74,0.03,5.47,0.06,8.21-0.01c1.13-0.03,1.39,0.32,1.38,1.42c-0.05,9.2-0.03,18.4-0.03,27.6
					c0.02,0,0.03,0,0.05,0c0,0.57,0,1.13,0,1.7c0.01,3.07,0.01,10.9,0.02,20.21c-1.42-0.02-3.26,0.03-4.54,0.14
					c-2,0.18-3.57-0.2-5.09-1.8c-3.01-3.18-6.33-6.07-9.55-9.05c-0.67-0.62-0.98-1.27-0.97-2.2c0.02-1.98-0.04-3.97-0.16-5.94
					c-0.07-1.17,0.14-1.88,1.36-2.49c3.38-1.67,4.88-5.3,4.04-9.09c-0.73-3.26-3.66-5.71-7.22-6.01c-3.37-0.29-6.79,1.86-8.06,5.08
					c-1.33,3.35-0.53,7.39,2.61,9.14c2.7,1.5,2.98,3.42,2.78,5.93c-0.06,0.75-0.06,1.51,0.03,2.26c0.13,1.03-0.3,1.26-1.26,1.29
					c-4.77,0.1-9.53,0.23-14.29,0.41c-1.04,0.04-1.58-0.29-2.07-1.21c-2.25-4.17-7.31-5.61-11.31-3.32
					c-3.28,1.88-4.91,5.43-4.18,9.13c0.69,3.48,3.92,6.41,7.46,6.75c3.26,0.32,6.96-1.93,8.42-5.15c0.26-0.59,0.48-1.02,1.27-1.04
					c5.62-0.12,11.22-0.28,16.84-0.44c0.51-0.01,0.89,0.14,1.26,0.5c3.41,3.39,15.76,13.41,15.76,13.41s6.23-1.18,6.73-1.27
					c0.01,0,0.06-0.01,0.14-0.01c0,0.37,0,0.73,0,1.09c0.88,0.14,1.67,0.28,2.5,0.48c0.1,0.03,0.23,0.05,0.35,0.08
					c0.28,0.06,0.56,0.13,0.84,0.2l0.05,0.01l1.15,0.33c0.41,0.12,0.82,0.25,1.25,0.39c-0.01-3.64-0.01-7.28-0.03-10.91
					c0-0.38-0.01-0.76-0.01-1.14c0-0.1,0-0.19,0-0.28c0-1.33,0-2.65,0-3.97c0-0.94,0-1.88,0-2.82c0-0.66-0.01-1.33-0.01-1.99
					c0-0.1,0-0.19,0-0.28c0-1.33,0-2.65,0-3.97c0-0.1,0-0.19,0-0.28c0-1.51,0-3.03-0.01-4.53c0-0.1,0-0.19,0-0.28
					c0.01-2.93,0.01-5.85,0.02-8.78c-0.02-0.66-0.05-1.32-0.05-1.98c0.03-20.75,0.06-41.51,0.1-62.26c-0.34-3.17-1.42-6.14-3.34-8.6
					c-3.47-4.47-8.1-7.1-13.84-7.57c-3.93-0.32-7.78,0.06-11.51,1.39c-1.36,0.66-2.8,1.16-4,2.12c-0.03,0.1-0.08,0.14-0.19,0.12
					c-0.69,0.52-1.37,1.04-2.06,1.57c-0.01,0.09-0.06,0.14-0.15,0.15c-0.14,0.14-0.28,0.28-0.43,0.42
					c-0.01,0.08-0.06,0.13-0.14,0.14c-0.14,0.14-0.28,0.28-0.42,0.43c-0.01,0.08-0.06,0.14-0.14,0.14
					c-0.14,0.14-0.28,0.28-0.43,0.42c-0.01,0.09-0.06,0.14-0.14,0.14c-3.01,3.44-5.27,7.24-5.78,11.89c-0.13,1.13-0.6,1.9-1.85,1.98
					c-1.22,0.08-2.36,0.55-3.53,0.84c-6.43,2.45-10.9,7.06-13.92,13.08c-1,2-1.47,4.3-1.67,6.6c-0.33,3.9,0.22,7.64,1.76,11.24
					c0.31,0.71,0.16,1.23-0.51,1.67c-8.6,5.59-12.12,16.76-9.26,26.45c0.61,2.05,1.44,4.05,2.69,5.81c0.49,0.69,0.55,1.09-0.24,1.65
					c-4.79,3.42-7.8,8.04-8.99,13.81c-0.64,3.12-0.56,6.19,0.01,9.38c1.2,6.71,4.63,11.75,10.26,15.4c0.61,0.39,0.66,0.69,0.42,1.35
					c-0.37,1.01-0.68,2.05-0.91,3.11c-0.25,1.13-0.54,2.24-0.64,3.4c-0.28,3.5,0.39,7.28,1.64,10.55c1.15,3.04,2.94,5.83,5.21,8.16
					c2.24,2.3,4.95,4.14,7.93,5.35c2.09,0.86,4.3,1.4,6.56,1.61c2,0.19,2.54,0.86,3.21,2.59c3.63,9.27,10.62,14.37,20.41,15.66
					c6.42,0.84,12.26-0.71,17.27-4.87c3.88-3.23,6.22-7.36,6.67-12.46c0.03-0.28,0.1-0.55,0.14-0.83
					C119.56,177.91,119.53,176.58,119.51,175.24z M75.66,160.1c1.69-1.92,5.05-1.76,6.99-0.02c2,1.8,2.06,4.78,0.18,6.85
					c-1.78,1.96-4.86,2.09-6.84,0.24C74.35,165.64,73.45,162.6,75.66,160.1z M75.95,132.85c1.8-1.88,4.99-1.96,6.89-0.17
					c2.11,1.98,2.23,5.03,0.3,7.06c-1.91,2-5,2.09-6.96,0.21C74.13,137.98,74.04,134.86,75.95,132.85z M92.79,55.5
					c-3.68,0.08-6.67-2.97-6.68-6.65c-0.01-3.56,2.94-6.51,6.63-6.5c4.09,0.01,6.75,3.1,6.77,6.65
					C99.54,52.39,96.8,55.41,92.79,55.5z M70.91,93.11c-2.27-0.03-4.2-2.02-4.17-4.3c0.03-2.27,1.93-4.2,4.11-4.19
					c2.34,0.02,4.16,1.84,4.13,4.11C74.96,91.15,73.12,93.13,70.91,93.11z M92.77,83.9c-3.6-0.04-6.59-3.03-6.57-6.57
					c0.02-3.7,2.85-6.53,6.54-6.52c3.61,0,6.5,2.91,6.52,6.57C99.27,81.14,96.48,83.95,92.77,83.9z M63.94,126.37
					c-2.76,0.21-5.18-1.96-5.39-4.84c-0.19-2.64,2.06-5.14,4.78-5.32c2.71-0.18,5.14,2,5.31,4.75
					C68.8,123.67,66.63,126.17,63.94,126.37z M85.83,102.41c-0.05-2.5,2.2-4.8,4.73-4.85c2.68-0.05,4.89,2.08,4.94,4.75
					c0.05,2.55-2.12,4.77-4.73,4.82C88.05,107.19,85.88,105.11,85.83,102.41z"/>
			</g>
		</g>
		<g>
			<g>
				<path class="st2" d="M152.44,177.66c-3.37-4.85-7.22-9.18-11.45-13.06c-4.22-3.87-8.78-7.3-13.64-10.04
					c-2.42-1.37-4.93-2.54-7.48-3.47c-1.27-0.45-2.56-0.86-3.86-1.16l-0.97-0.24c-0.32-0.07-0.65-0.12-0.97-0.19
					c-0.64-0.14-1.29-0.21-1.94-0.29c-0.65-0.1-1.29-0.1-1.94-0.15c-0.64-0.03-1.28-0.02-1.93-0.03c-1.27,0.06-2.54,0.17-3.77,0.44
					l-0.92,0.19l-0.76,0.22c-0.25,0.08-0.49,0.19-0.73,0.28c-0.25,0.1-0.48,0.24-0.72,0.35c-0.95,0.51-1.84,1.19-2.6,1.99
					c-1.54,1.6-2.59,3.68-2.84,5.73l-0.06,0.77c-0.01,0.25,0.02,0.51,0.01,0.76c-0.01,0.12,0.02,0.28,0.03,0.43l0.05,0.46
					c0.03,0.31,0.09,0.59,0.14,0.89c0.21,1.17,0.55,2.26,1.02,3.23c0.95,1.93,2.45,3.37,4.51,4.33c2.03,0.99,4.55,1.51,7.16,1.69
					c2.62,0.18,5.36,0.05,8.1-0.27c2.75-0.32,5.51-0.83,8.27-1.46c5.51-1.27,10.99-2.96,16.35-4.95c2.69-1,5.33-2.05,7.93-3.23
					c2.64-1.18,5.27-2.41,7.93-3.65c5.31-2.46,10.68-4.96,16.24-7.16c5.56-2.21,11.31-4.07,17.33-5.25
					c3.03-0.57,6.16-0.91,9.36-0.79c3.19,0.13,6.48,0.73,9.5,2.05c3.02,1.3,5.87,3.25,8,5.95c1.06,1.33,1.96,2.88,2.56,4.5
					c0.59,1.63,0.93,3.34,0.99,5.07c0.05,1.73-0.15,3.49-0.73,5.17c-0.56,1.67-1.49,3.28-2.7,4.6c-1.2,1.32-2.65,2.34-4.15,3.12
					c-1.51,0.78-3.07,1.29-4.64,1.67c-1.56,0.37-3.13,0.59-4.69,0.7c-1.55,0.1-3.07,0.14-4.6,0.09c-3.06-0.08-6.09-0.44-9.05-1
					c-5.95-1.11-11.62-3-17.17-5.21c-5.52-2.29-10.86-5.04-15.83-8.36c-4.96-3.34-9.63-7.15-13.72-11.55
					c-0.51-0.55-1.03-1.09-1.53-1.65l-1.46-1.72l-0.73-0.86l-0.68-0.9l-1.37-1.79l-1.28-1.85c-0.43-0.62-0.85-1.24-1.24-1.85
					c-0.8-1.24-1.6-2.49-2.36-3.75c-3.07-5.07-5.94-10.43-7.49-16.39c-0.77-2.97-1.18-6.09-1.04-9.22c0.05-0.78,0.13-1.56,0.2-2.34
					c0.1-0.78,0.26-1.55,0.4-2.32c0.15-0.77,0.39-1.52,0.57-2.28c0.26-0.74,0.48-1.49,0.79-2.22c1.17-2.92,2.83-5.63,4.88-8.02
					c2.07-2.36,4.52-4.39,7.21-6c2.71-1.58,5.66-2.76,8.74-3.44c3.08-0.64,6.28-0.84,9.44-0.42c3.15,0.43,6.25,1.38,9.05,2.93
					c2.8,1.55,5.3,3.6,7.37,6c2.08,2.39,3.76,5.19,4.84,8.22c0.53,1.51,0.93,3.07,1.18,4.66c0.24,1.58,0.33,3.17,0.32,4.75
					c-0.06,3.16-0.59,6.27-1.46,9.23c-0.42,1.49-0.93,2.94-1.51,4.36c-0.57,1.42-1.2,2.81-1.89,4.18c-1.37,2.72-2.95,5.33-4.69,7.8
					c-1.74,2.49-3.6,4.84-5.61,7.1c-1,1.13-2.04,2.23-3.13,3.31c-0.57,0.55-1.18,1.17-2.18,1.75c-0.47,0.29-1.13,0.55-1.84,0.67
					c-0.73,0.11-1.53,0.05-2.18-0.17c-0.34-0.1-0.61-0.24-0.9-0.37c-0.25-0.14-0.5-0.3-0.73-0.45l-0.61-0.48
					c-0.19-0.16-0.35-0.32-0.52-0.49c-0.19-0.18-0.29-0.29-0.43-0.42l-0.38-0.39l-0.77-0.79c-1.02-1.06-2.04-2.12-3.05-3.21
					c-4.04-4.33-7.99-8.92-11.12-14.22c-1.56-2.65-2.86-5.49-3.79-8.48c-0.46-1.5-0.85-3.02-1.09-4.58
					c-0.15-0.75-0.26-1.59-0.31-2.41c-0.06-0.82-0.05-1.65,0-2.48c0.11-1.65,0.42-3.3,0.97-4.89c0.54-1.6,1.36-3.12,2.41-4.49
					c0.25-0.35,0.56-0.66,0.84-0.99c0.3-0.31,0.61-0.62,0.93-0.91c0.66-0.59,1.38-1.09,2.12-1.54c1.5-0.89,3.19-1.46,4.93-1.69
					c0.88-0.1,1.76-0.11,2.65-0.02c0.88,0.1,1.76,0.31,2.6,0.62l0.62,0.25c0.21,0.09,0.41,0.21,0.6,0.31
					c0.41,0.2,0.77,0.46,1.14,0.71c0.71,0.54,1.37,1.15,1.89,1.86c1.09,1.38,1.72,2.97,2.05,4.55s0.35,3.17,0.12,4.7v0.01
					l-1.29-0.02c0.08-0.77,0.41-1.46,0.82-1.98c0.41-0.52,0.9-0.94,1.34-1.31c0.88-0.76,1.8-1.51,2.82-2.2
					c2.01-1.35,4.64-2.44,7.55-1.9c0.71,0.14,1.44,0.39,2.09,0.74c0.65,0.35,1.24,0.78,1.77,1.26c1.06,0.97,1.85,2.18,2.4,3.44
					c1.09,2.48,1.22,5.25,0.69,7.76c-0.26,1.26-0.63,2.49-1.16,3.63c-0.27,0.56-0.5,1.14-0.82,1.66l-0.44,0.8
					c-0.15,0.26-0.33,0.52-0.49,0.77c-1.33,2.05-2.92,3.84-4.64,5.46c-3.48,3.19-7.42,5.67-11.44,7.9c1.84-1.39,3.63-2.83,5.33-4.35
					c1.71-1.51,3.32-3.12,4.77-4.84c1.44-1.71,2.7-3.55,3.65-5.51c0.12-0.24,0.24-0.48,0.35-0.73l0.3-0.75
					c0.22-0.49,0.35-1.01,0.52-1.51c0.31-1,0.47-2.02,0.53-3.03c0.07-2.03-0.21-3.99-0.86-5.78c-0.6-1.72-1.81-3.17-3.35-3.72
					c-0.79-0.28-1.74-0.37-2.72-0.25c-0.97,0.1-1.96,0.41-2.95,0.85c-0.99,0.44-1.95,1-2.92,1.6c-0.48,0.3-0.91,0.59-1.27,0.91
					c-0.35,0.33-0.62,0.7-0.58,1.09l-1.29-0.02v-0.01c-0.3-1.4-0.68-2.74-1.25-3.94c-0.57-1.2-1.29-2.27-2.17-3.08
					c-0.86-0.82-1.88-1.36-2.97-1.65c-1.09-0.31-2.27-0.33-3.42-0.14c-0.58,0.09-1.15,0.25-1.7,0.46c-0.55,0.2-1.09,0.46-1.59,0.77
					c-1.01,0.61-1.88,1.42-2.6,2.39c-1.44,1.93-2.2,4.42-2.32,6.95c-0.02,0.64-0.02,1.27,0.03,1.91c0.04,0.64,0.14,1.26,0.27,1.93
					c0.23,1.33,0.58,2.65,0.99,3.95c0.84,2.59,2.02,5.09,3.45,7.48c2.83,4.8,6.55,9.16,10.49,13.38c0.99,1.06,1.99,2.11,3,3.16
					l0.76,0.79l0.38,0.39c0.12,0.13,0.27,0.28,0.35,0.35c0.37,0.39,0.77,0.63,0.84,0.63c0.05,0.01,0-0.01-0.01,0.01
					c0.01-0.02,0.06,0.01,0.21-0.1c0.28-0.15,0.75-0.54,1.22-1c1-0.98,1.98-2,2.93-3.05c3.79-4.23,7.17-8.85,9.73-13.84
					c2.56-4.98,4.35-10.38,4.49-15.78c0.03-1.35-0.05-2.69-0.24-4.01c-0.19-1.31-0.52-2.6-0.95-3.85c-0.87-2.5-2.23-4.82-3.98-6.85
					c-1.75-2.05-3.82-3.78-6.14-5.09c-2.32-1.31-4.89-2.12-7.54-2.51c-2.65-0.37-5.38-0.23-8.02,0.3c-2.65,0.56-5.21,1.55-7.57,2.87
					c-2.35,1.37-4.49,3.08-6.31,5.1c-1.8,2.03-3.26,4.35-4.31,6.86c-0.27,0.62-0.47,1.27-0.71,1.91c-0.17,0.66-0.39,1.31-0.52,1.97
					c-0.12,0.67-0.27,1.33-0.37,2l-0.19,2.03c-0.15,2.72,0.17,5.48,0.84,8.18c1.35,5.42,3.97,10.55,6.96,15.48
					c0.75,1.24,1.52,2.46,2.31,3.68c0.39,0.62,0.79,1.21,1.2,1.8l1.21,1.76l1.31,1.69l0.65,0.85l0.7,0.82l1.39,1.63
					c0.48,0.53,0.98,1.04,1.46,1.56c3.9,4.17,8.41,7.77,13.2,10.9c4.8,3.12,9.95,5.71,15.27,7.84c5.34,2.08,10.88,3.77,16.47,4.71
					c2.79,0.47,5.61,0.75,8.4,0.76c1.4,0.02,2.8-0.05,4.17-0.16c1.36-0.12,2.7-0.33,3.98-0.66c2.56-0.64,4.87-1.82,6.37-3.56
					c0.75-0.88,1.29-1.86,1.63-2.97c0.35-1.1,0.46-2.3,0.39-3.49c-0.07-1.19-0.33-2.39-0.77-3.5c-0.45-1.11-1.06-2.11-1.85-3.05
					c-1.55-1.87-3.71-3.3-6.08-4.25c-2.38-0.97-4.95-1.38-7.61-1.42c-2.65-0.03-5.37,0.32-8.08,0.9
					c-5.45,1.22-10.86,3.08-16.12,5.32c-5.28,2.22-10.48,4.79-15.74,7.37c-2.63,1.28-5.28,2.58-7.97,3.82
					c-2.72,1.28-5.5,2.45-8.28,3.53c-5.58,2.16-11.28,4.05-17.19,5.43c-2.95,0.69-5.95,1.26-9.02,1.64
					c-3.07,0.37-6.2,0.56-9.43,0.35c-3.21-0.22-6.57-0.79-9.83-2.35c-1.61-0.79-3.19-1.82-4.53-3.14c-1.35-1.31-2.48-2.88-3.28-4.55
					c-0.8-1.67-1.31-3.41-1.6-5.13c-0.06-0.43-0.15-0.86-0.19-1.28l-0.06-0.64c-0.02-0.21-0.05-0.41-0.05-0.66
					c-0.01-0.48-0.04-0.96-0.02-1.44c0.03-0.48,0.06-0.95,0.12-1.42c0.5-3.77,2.3-7.14,4.82-9.74c1.26-1.3,2.73-2.43,4.37-3.3
					c0.42-0.2,0.82-0.43,1.26-0.6c0.44-0.17,0.86-0.35,1.31-0.5c0.45-0.13,0.91-0.27,1.36-0.38l1.23-0.23
					c3.28-0.6,6.65-0.62,9.85-0.1c0.8,0.13,1.6,0.26,2.38,0.46c0.39,0.09,0.79,0.17,1.17,0.28l1.15,0.33
					c1.53,0.45,3.01,1.02,4.46,1.64c0.72,0.31,1.42,0.66,2.14,0.98c0.69,0.37,1.38,0.73,2.06,1.1c1.35,0.77,2.67,1.58,3.93,2.45
					c5.07,3.49,9.48,7.74,13.24,12.43c1.88,2.35,3.59,4.82,5.09,7.41C150.19,172.16,151.47,174.87,152.44,177.66z"/>
			</g>
		</g>
	</g>
</g>
</svg>
