<?xml version="1.0" encoding="utf-8"?>
<!-- Generator: Adobe Illustrator 24.3.0, SVG Export Plug-In . SVG Version: 6.00 Build 0)  -->
<svg version="1.1" id="Capa_1" xmlns="http://www.w3.org/2000/svg" xmlns:xlink="http://www.w3.org/1999/xlink" x="0px" y="0px"
	 viewBox="0 0 1918.98 612.51" style="enable-background:new 0 0 1918.98 612.51;" xml:space="preserve">
<style type="text/css">
	.st0{fill:#00245E;}
	.st1{fill:#00ABAA;}
	.st2{fill:#D39CC7;}
	.st3{fill:#96D0EE;}
	.st4{fill:#F5C1AE;}
	.st5{fill:#F0BFDA;}
	.st6{fill:#FFF4C3;}
	.st7{fill:#CDE4CA;}
	.st8{fill:none;}
	.st9{fill:#274193;}
</style>
<g>
	<g>
		<path class="st0" d="M697.85,447.41l1.16,2.27c-5.2,2.15-10.32,3.23-15.36,3.23c-3.07,0-5.88-0.55-8.44-1.66
			c-2.52-1.09-4.62-2.56-6.31-4.42c-1.67-1.88-2.95-4-3.85-6.34c-0.9-2.35-1.35-4.78-1.35-7.3c0-2.62,0.44-5.15,1.31-7.58
			c0.87-2.43,2.12-4.61,3.75-6.53c1.61-1.92,3.7-3.47,6.26-4.66c2.54-1.16,5.34-1.75,8.41-1.75c4.38,0,9.32,1.01,14.81,3.03
			l-1.13,2.41c-5.24-1.88-9.77-2.82-13.61-2.82c-2.58,0-4.96,0.48-7.16,1.45c-2.19,0.97-4,2.31-5.44,4.01
			c-1.39,1.65-2.48,3.54-3.24,5.67c-0.77,2.13-1.15,4.35-1.15,6.66c0,2.21,0.39,4.35,1.18,6.41c0.79,2.07,1.91,3.91,3.36,5.54
			c1.47,1.63,3.31,2.92,5.51,3.85c2.2,0.94,4.58,1.41,7.14,1.41C687.89,450.32,692.62,449.35,697.85,447.41z"/>
		<path class="st0" d="M718.63,452.85c-4.31,0-7.87-1.36-10.7-4.07c-1.38-1.36-2.45-3.03-3.23-5c-0.78-1.98-1.16-4.15-1.16-6.52
			c0-4.77,1.37-8.59,4.1-11.46c2.77-2.91,6.31-4.36,10.62-4.36c3.76,0,7.03,1.1,9.8,3.29c1.42,1.09,2.53,2.56,3.33,4.41
			c0.8,1.85,1.21,3.93,1.21,6.24c0,0.66-0.05,1.5-0.15,2.53h-26.15c0.35,4.5,1.72,7.79,4.1,9.86c2.21,1.88,4.9,2.82,8.06,2.82
			c3.4,0,6.9-0.85,10.5-2.56l1.4,1.83c-1.4,0.79-3.21,1.5-5.44,2.13C722.74,452.56,720.64,452.85,718.63,452.85z M706.29,435.71
			h23.68c0-3.82-1.06-6.76-3.17-8.81c-2.13-2.07-4.94-3.11-8.41-3.11c-3.45,0-6.27,1.03-8.44,3.08
			C707.77,428.95,706.54,431.89,706.29,435.71z"/>
		<path class="st0" d="M742.71,452.38h-2.71v-30.4l0.73-0.29l1.98,1.89c1.34-0.55,3.06-1.03,5.18-1.45c2.15-0.47,4.16-0.7,6.02-0.7
			c3.92,0,6.93,1.09,9.05,3.26c2.15,2.15,3.23,5.23,3.23,9.22v18.47h-2.73v-18.41c0-3.28-0.84-5.78-2.52-7.51
			c-1.68-1.72-4.07-2.59-7.17-2.59c-3.71,0-7.39,0.71-11.06,2.15V452.38z"/>
		<path class="st0" d="M780.68,413.2v8.7h9.02v2.24h-9.05v19.43c0,0.91,0.01,1.52,0.03,1.83c0.04,1.36,0.18,2.3,0.41,2.82
			c0.37,0.87,0.83,1.46,1.4,1.75c0.79,0.37,1.78,0.55,2.97,0.55c1.63,0,3.33-0.45,5.12-1.36l0.9,2.12
			c-2.02,1.05-4.11,1.57-6.28,1.57c-2.43,0-4.25-0.57-5.47-1.72c-0.52-0.52-0.91-1.21-1.16-2.07c-0.27-0.87-0.45-1.69-0.52-2.47
			c-0.06-0.79-0.09-1.8-0.09-3.03v-19.43h-5.32v-2.24h5.32v-7.71L780.68,413.2z"/>
		<path class="st0" d="M799.21,452.38h-2.79v-30.37l0.73-0.29l1.95,1.89c0.78-0.52,1.91-1.02,3.4-1.48c1.49-0.47,2.83-0.7,4.02-0.7
			c1.32,0,2.5,0.12,3.55,0.35c1.03,0.19,2.26,0.66,3.7,1.39l-1.16,2.21c-1.9-0.99-4-1.48-6.29-1.48c-1.09,0-2.1,0.11-3.05,0.35
			c-0.97,0.23-1.71,0.48-2.21,0.73c-0.78,0.41-1.39,0.75-1.83,1.02V452.38z"/>
		<path class="st0" d="M816.2,437.32c0-2.56,0.39-4.87,1.18-6.93c0.79-2.06,1.89-3.74,3.3-5.03c2.85-2.62,6.45-3.93,10.79-3.93
			c2.85,0,5.4,0.59,7.65,1.77c2.29,1.17,4.11,2.97,5.47,5.41c1.4,2.43,2.09,5.32,2.09,8.7c0,2.37-0.4,4.55-1.21,6.55
			c-0.8,1.99-1.92,3.65-3.36,4.97c-2.93,2.67-6.5,4.01-10.7,4.01c-4.21,0-7.78-1.34-10.7-4.01c-1.42-1.32-2.52-2.98-3.32-4.97
			C816.6,441.86,816.2,439.68,816.2,437.32z M831.41,450.41c2.31,0,4.41-0.52,6.31-1.54c1.84-0.99,3.35-2.51,4.51-4.57
			c1.14-2.02,1.72-4.34,1.72-6.98c0-4.29-1.17-7.59-3.52-9.92c-2.33-2.35-5.33-3.52-9.02-3.52c-3.65,0-6.64,1.17-8.99,3.52
			c-2.35,2.35-3.52,5.65-3.52,9.92c0,3.95,1.19,7.12,3.58,9.51C824.87,449.21,827.85,450.41,831.41,450.41z"/>
		<path class="st0" d="M880.61,452.85c-1.82,0-3.58-0.37-5.28-1.1c-1.7-0.74-3.19-1.77-4.49-3.11c-1.32-1.36-2.36-3.03-3.11-5.03
			s-1.13-4.15-1.13-6.46c0-2.4,0.36-4.61,1.09-6.63c0.73-2.02,1.73-3.68,3.01-5c2.66-2.71,5.89-4.07,9.72-4.07
			c4.09,0,7.94,0.75,11.55,2.24v-14.08h2.73v42.65l-0.73,0.29l-1.98-1.83c-0.55,0.23-1.28,0.5-2.21,0.81
			c-0.89,0.27-2.21,0.57-3.96,0.87C884.09,452.69,882.35,452.85,880.61,452.85z M880.87,450.41c2.25,0,4.41-0.25,6.49-0.73
			c2.17-0.51,3.72-0.99,4.65-1.46v-11.32v-10.88c-3.39-1.45-7.19-2.18-11.37-2.18c-3.18,0-5.84,1.12-7.97,3.35
			c-1.05,1.1-1.87,2.52-2.46,4.25c-0.59,1.72-0.89,3.63-0.89,5.7c0,2,0.31,3.85,0.94,5.57c0.63,1.72,1.49,3.14,2.58,4.26
			C875.13,449.26,877.8,450.41,880.87,450.41z"/>
		<path class="st0" d="M917.44,452.85c-4.31,0-7.87-1.36-10.7-4.07c-1.38-1.36-2.45-3.03-3.23-5c-0.78-1.98-1.16-4.15-1.16-6.52
			c0-4.77,1.37-8.59,4.1-11.46c2.77-2.91,6.31-4.36,10.62-4.36c3.76,0,7.03,1.1,9.8,3.29c1.42,1.09,2.53,2.56,3.33,4.41
			c0.8,1.85,1.21,3.93,1.21,6.24c0,0.66-0.05,1.5-0.15,2.53H905.1c0.35,4.5,1.72,7.79,4.1,9.86c2.21,1.88,4.9,2.82,8.06,2.82
			c3.4,0,6.9-0.85,10.5-2.56l1.4,1.83c-1.4,0.79-3.21,1.5-5.44,2.13C921.55,452.56,919.46,452.85,917.44,452.85z M905.1,435.71
			h23.68c0-3.82-1.06-6.76-3.17-8.81c-2.13-2.07-4.94-3.11-8.41-3.11c-3.45,0-6.27,1.03-8.44,3.08
			C906.58,428.95,905.36,431.89,905.1,435.71z"/>
		<path class="st0" d="M947.81,452.85c-3.82,0-7.72-0.76-11.69-2.27l0.78-2.21c3.84,1.42,7.51,2.12,11,2.12
			c0.95,0,1.9-0.08,2.85-0.26c0.95-0.18,1.91-0.48,2.86-0.9c0.96-0.43,1.74-1.06,2.34-1.92c0.6-0.85,0.9-1.86,0.9-3.03
			c0-1.07-0.23-1.91-0.7-2.53c-0.54-0.76-1.15-1.31-1.8-1.66c-0.95-0.49-1.8-0.85-2.56-1.08c-0.45-0.14-0.91-0.26-1.4-0.38
			l-0.55-0.15c-0.37-0.09-0.68-0.17-0.93-0.23l-1.45-0.38c-3.16-0.83-5.16-1.42-5.99-1.77c-2.56-1.05-4.12-2.52-4.68-4.42
			c-0.19-0.6-0.29-1.29-0.29-2.06c0-1.46,0.31-2.73,0.94-3.83c0.63-1.09,1.49-1.96,2.58-2.59c1.09-0.63,2.28-1.1,3.59-1.41
			c1.31-0.31,2.72-0.46,4.23-0.46c2.87,0,6.4,0.77,10.59,2.3l-0.84,2.15c-3.67-1.36-6.91-2.04-9.75-2.04
			c-1.59,0-3.02,0.17-4.28,0.52c-1.28,0.35-2.33,0.99-3.14,1.92c-0.82,0.93-1.22,2.07-1.22,3.41c0,1.57,0.79,2.88,2.36,3.93
			c0.72,0.43,1.77,0.84,3.17,1.22l1.72,0.44c0.15,0.04,0.67,0.16,1.54,0.38l1.8,0.49l1.95,0.52c1.59,0.41,2.85,0.87,3.78,1.4
			c1.28,0.62,2.25,1.4,2.91,2.35c0.76,1.09,1.13,2.4,1.13,3.96c0,1.24-0.24,2.35-0.71,3.33s-1.1,1.78-1.86,2.41
			c-0.77,0.63-1.67,1.16-2.72,1.57c-1.05,0.42-2.1,0.71-3.17,0.89C950.03,452.76,948.94,452.85,947.81,452.85z"/>
		<path class="st0" d="M978.21,452.85c-3.8,0-7.02-1.35-9.66-4.04c-1.28-1.32-2.28-2.98-3.01-4.99c-0.73-2.01-1.09-4.2-1.09-6.59
			c0-2.31,0.37-4.47,1.11-6.47c0.74-2.01,1.75-3.69,3.05-5.05c1.3-1.36,2.79-2.41,4.47-3.16c1.68-0.74,3.43-1.12,5.25-1.12
			c1.8,0,3.57,0.16,5.29,0.46c1.84,0.33,3.18,0.63,4.01,0.9c0.87,0.25,1.61,0.52,2.21,0.79l1.95-1.83l0.73,0.26v30.37h-2.7
			l0.35-1.98C986.31,452.03,982.32,452.85,978.21,452.85z M978.5,450.41c4.23,0,8.01-0.7,11.35-2.1v-10.88v-11.37
			c-0.93-0.46-2.48-0.95-4.66-1.45c-2.07-0.49-4.24-0.73-6.49-0.73c-3.16,0-5.88,1.2-8.15,3.6c-2.27,2.41-3.4,5.65-3.4,9.72
			c0,2.07,0.3,3.98,0.89,5.7c0.59,1.73,1.42,3.13,2.49,4.19C972.7,449.3,975.36,450.41,978.5,450.41z"/>
		<path class="st0" d="M1004.86,452.38h-2.79v-30.37l0.73-0.29l1.95,1.89c0.78-0.52,1.91-1.02,3.4-1.48c1.49-0.47,2.83-0.7,4.02-0.7
			c1.32,0,2.5,0.12,3.55,0.35c1.03,0.19,2.26,0.66,3.7,1.39l-1.16,2.21c-1.9-0.99-4-1.48-6.29-1.48c-1.09,0-2.1,0.11-3.05,0.35
			c-0.97,0.23-1.71,0.48-2.21,0.73c-0.78,0.41-1.39,0.75-1.83,1.02V452.38z"/>
		<path class="st0" d="M1027.2,452.38h-2.79v-30.37l0.73-0.29l1.95,1.89c0.78-0.52,1.91-1.02,3.4-1.48c1.49-0.47,2.83-0.7,4.02-0.7
			c1.32,0,2.5,0.12,3.55,0.35c1.03,0.19,2.26,0.66,3.7,1.39l-1.16,2.21c-1.9-0.99-4-1.48-6.29-1.48c-1.09,0-2.1,0.11-3.05,0.35
			c-0.97,0.23-1.71,0.48-2.21,0.73c-0.78,0.41-1.39,0.75-1.83,1.02V452.38z"/>
		<path class="st0" d="M1044.19,437.32c0-2.56,0.39-4.87,1.18-6.93c0.79-2.06,1.89-3.74,3.3-5.03c2.85-2.62,6.45-3.93,10.79-3.93
			c2.85,0,5.4,0.59,7.65,1.77c2.29,1.17,4.11,2.97,5.47,5.41c1.4,2.43,2.1,5.32,2.1,8.7c0,2.37-0.4,4.55-1.21,6.55
			c-0.8,1.99-1.92,3.65-3.36,4.97c-2.93,2.67-6.5,4.01-10.7,4.01c-4.21,0-7.78-1.34-10.71-4.01c-1.42-1.32-2.52-2.98-3.32-4.97
			C1044.59,441.86,1044.19,439.68,1044.19,437.32z M1059.41,450.41c2.31,0,4.41-0.52,6.31-1.54c1.84-0.99,3.34-2.51,4.51-4.57
			c1.15-2.02,1.72-4.34,1.72-6.98c0-4.29-1.17-7.59-3.52-9.92c-2.33-2.35-5.33-3.52-9.02-3.52c-3.65,0-6.64,1.17-8.99,3.52
			c-2.35,2.35-3.52,5.65-3.52,9.92c0,3.95,1.19,7.12,3.58,9.51C1052.86,449.21,1055.84,450.41,1059.41,450.41z"/>
		<path class="st0" d="M1085.42,409.59v42.79h-2.73v-42.79H1085.42z"/>
		<path class="st0" d="M1098.51,409.59v42.79h-2.73v-42.79H1098.51z"/>
		<path class="st0" d="M1106.56,437.32c0-2.56,0.39-4.87,1.17-6.93c0.79-2.06,1.89-3.74,3.3-5.03c2.85-2.62,6.45-3.93,10.79-3.93
			c2.85,0,5.4,0.59,7.65,1.77c2.29,1.17,4.11,2.97,5.47,5.41c1.4,2.43,2.1,5.32,2.1,8.7c0,2.37-0.4,4.55-1.21,6.55
			c-0.8,1.99-1.92,3.65-3.36,4.97c-2.93,2.67-6.5,4.01-10.7,4.01c-4.21,0-7.78-1.34-10.71-4.01c-1.42-1.32-2.52-2.98-3.32-4.97
			C1106.96,441.86,1106.56,439.68,1106.56,437.32z M1121.78,450.41c2.31,0,4.41-0.52,6.31-1.54c1.84-0.99,3.34-2.51,4.51-4.57
			c1.15-2.02,1.72-4.34,1.72-6.98c0-4.29-1.17-7.59-3.52-9.92c-2.33-2.35-5.33-3.52-9.02-3.52c-3.65,0-6.65,1.17-8.99,3.52
			c-2.35,2.35-3.52,5.65-3.52,9.92c0,3.95,1.19,7.12,3.58,9.51C1115.23,449.21,1118.21,450.41,1121.78,450.41z"/>
		<path class="st0" d="M1160.76,452.38v-28.13h-5.35v-2.36h5.35v-3.57c0-0.72,0.02-1.49,0.06-2.3c0.12-1.73,0.37-2.96,0.76-3.7
			c0.5-1.06,1.32-1.86,2.44-2.4c1.12-0.53,2.72-0.8,4.77-0.8c2.33,0,4.37,0.46,6.14,1.36l-1.1,2.1c-1.36-0.72-3.01-1.08-4.95-1.08
			c-1.44,0-2.46,0.13-3.08,0.38c-0.33,0.14-0.57,0.24-0.71,0.3c-0.15,0.07-0.3,0.18-0.47,0.33c-0.16,0.16-0.3,0.34-0.42,0.55
			c-0.33,0.62-0.54,1.32-0.61,2.1l-0.09,1.39v1.75v3.57h8.96v2.36h-8.96v28.13H1160.76z"/>
		<path class="st0" d="M1186.42,410.4l-5.73,7.83h-2.5v-0.29l5.06-7.85h3.17V410.4z M1181.09,452.38h-2.73v-30.49h2.73V452.38z"/>
		<path class="st0" d="M1199.89,452.85c-3.82,0-7.72-0.76-11.7-2.27l0.79-2.21c3.84,1.42,7.51,2.12,11,2.12
			c0.95,0,1.9-0.08,2.85-0.26c0.95-0.18,1.9-0.48,2.86-0.9c0.96-0.43,1.74-1.06,2.34-1.92c0.6-0.85,0.9-1.86,0.9-3.03
			c0-1.07-0.23-1.91-0.7-2.53c-0.54-0.76-1.15-1.31-1.8-1.66c-0.95-0.49-1.8-0.85-2.56-1.08c-0.44-0.14-0.91-0.26-1.39-0.38
			l-0.55-0.15c-0.37-0.09-0.68-0.17-0.93-0.23l-1.46-0.38c-3.16-0.83-5.16-1.42-5.99-1.77c-2.56-1.05-4.12-2.52-4.68-4.42
			c-0.19-0.6-0.29-1.29-0.29-2.06c0-1.46,0.31-2.73,0.95-3.83c0.63-1.09,1.49-1.96,2.57-2.59c1.09-0.63,2.28-1.1,3.59-1.41
			c1.31-0.31,2.72-0.46,4.23-0.46c2.87,0,6.4,0.77,10.59,2.3l-0.85,2.15c-3.66-1.36-6.91-2.04-9.74-2.04
			c-1.59,0-3.02,0.17-4.28,0.52c-1.28,0.35-2.33,0.99-3.14,1.92c-0.81,0.93-1.22,2.07-1.22,3.41c0,1.57,0.79,2.88,2.36,3.93
			c0.72,0.43,1.77,0.84,3.17,1.22l1.72,0.44c0.15,0.04,0.67,0.16,1.54,0.38l1.8,0.49l1.95,0.52c1.59,0.41,2.85,0.87,3.78,1.4
			c1.28,0.62,2.25,1.4,2.91,2.35c0.76,1.09,1.14,2.4,1.14,3.96c0,1.24-0.24,2.35-0.71,3.33c-0.48,0.98-1.09,1.78-1.86,2.41
			c-0.76,0.63-1.67,1.16-2.72,1.57c-1.05,0.42-2.1,0.71-3.17,0.89C1202.11,452.76,1201.01,452.85,1199.89,452.85z"/>
		<path class="st0" d="M1220.28,412.67c0.62,0,1.15,0.19,1.6,0.58c0.44,0.38,0.67,0.92,0.67,1.6c0,0.66-0.22,1.2-0.67,1.6
			c-0.45,0.41-0.98,0.61-1.6,0.61c-0.66,0-1.21-0.2-1.64-0.6c-0.44-0.4-0.65-0.93-0.65-1.61c0-0.68,0.22-1.21,0.65-1.6
			C1219.07,412.87,1219.62,412.67,1220.28,412.67z M1221.67,452.38h-2.73v-30.49h2.73V452.38z"/>
		<path class="st0" d="M1254.29,448.2l0.96,2.09c-3.66,1.71-7.6,2.56-11.81,2.56c-3.78,0-7.06-1.39-9.83-4.16
			c-1.32-1.36-2.36-3.04-3.13-5.05c-0.77-2.01-1.15-4.17-1.15-6.5c0-2.44,0.38-4.68,1.13-6.72s1.8-3.71,3.11-5
			c2.7-2.66,5.93-3.99,9.71-3.99c3.3,0,7.07,0.77,11.32,2.3l-0.85,2.13c-3.72-1.32-7.16-1.98-10.3-1.98c-3.26,0-5.98,1.15-8.18,3.46
			c-2.17,2.29-3.26,5.55-3.26,9.77c0,2.02,0.31,3.88,0.93,5.59c0.62,1.71,1.47,3.12,2.56,4.25c2.21,2.31,4.93,3.46,8.15,3.46
			C1247.03,450.41,1250.57,449.67,1254.29,448.2z"/>
		<path class="st0" d="M1260.02,437.32c0-2.56,0.39-4.87,1.17-6.93c0.79-2.06,1.89-3.74,3.3-5.03c2.85-2.62,6.45-3.93,10.79-3.93
			c2.85,0,5.4,0.59,7.65,1.77c2.29,1.17,4.11,2.97,5.47,5.41c1.4,2.43,2.1,5.32,2.1,8.7c0,2.37-0.4,4.55-1.21,6.55
			c-0.8,1.99-1.92,3.65-3.36,4.97c-2.93,2.67-6.5,4.01-10.7,4.01c-4.21,0-7.78-1.34-10.71-4.01c-1.42-1.32-2.52-2.98-3.32-4.97
			C1260.42,441.86,1260.02,439.68,1260.02,437.32z M1275.24,450.41c2.31,0,4.41-0.52,6.31-1.54c1.84-0.99,3.34-2.51,4.51-4.57
			c1.15-2.02,1.72-4.34,1.72-6.98c0-4.29-1.17-7.59-3.52-9.92c-2.33-2.35-5.33-3.52-9.02-3.52c-3.65,0-6.65,1.17-8.99,3.52
			c-2.34,2.35-3.52,5.65-3.52,9.92c0,3.95,1.19,7.12,3.58,9.51C1268.69,449.21,1271.67,450.41,1275.24,450.41z"/>
		<path class="st0" d="M1303.6,448.95l-4.62,9.77h-2.3v-0.29l3.87-9.8h3.05V448.95z"/>
		<path class="st0" d="M1353.99,448.2l0.96,2.09c-3.66,1.71-7.6,2.56-11.81,2.56c-3.78,0-7.06-1.39-9.83-4.16
			c-1.32-1.36-2.36-3.04-3.13-5.05c-0.77-2.01-1.15-4.17-1.15-6.5c0-2.44,0.38-4.68,1.13-6.72s1.8-3.71,3.11-5
			c2.7-2.66,5.93-3.99,9.71-3.99c3.3,0,7.07,0.77,11.32,2.3l-0.85,2.13c-3.72-1.32-7.16-1.98-10.3-1.98c-3.26,0-5.98,1.15-8.18,3.46
			c-2.17,2.29-3.26,5.55-3.26,9.77c0,2.02,0.31,3.88,0.93,5.59c0.62,1.71,1.47,3.12,2.56,4.25c2.21,2.31,4.93,3.46,8.15,3.46
			C1346.72,450.41,1350.27,449.67,1353.99,448.2z"/>
		<path class="st0" d="M1359.72,437.32c0-2.56,0.39-4.87,1.17-6.93c0.79-2.06,1.89-3.74,3.3-5.03c2.85-2.62,6.45-3.93,10.79-3.93
			c2.85,0,5.4,0.59,7.65,1.77c2.29,1.17,4.11,2.97,5.47,5.41c1.4,2.43,2.1,5.32,2.1,8.7c0,2.37-0.4,4.55-1.21,6.55
			c-0.8,1.99-1.92,3.65-3.36,4.97c-2.93,2.67-6.5,4.01-10.7,4.01c-4.21,0-7.78-1.34-10.71-4.01c-1.42-1.32-2.52-2.98-3.32-4.97
			C1360.11,441.86,1359.72,439.68,1359.72,437.32z M1374.93,450.41c2.31,0,4.41-0.52,6.31-1.54c1.84-0.99,3.34-2.51,4.51-4.57
			c1.15-2.02,1.72-4.34,1.72-6.98c0-4.29-1.17-7.59-3.52-9.92c-2.33-2.35-5.33-3.52-9.02-3.52c-3.65,0-6.65,1.17-8.99,3.52
			c-2.35,2.35-3.52,5.65-3.52,9.92c0,3.95,1.19,7.12,3.58,9.51C1368.38,449.21,1371.36,450.41,1374.93,450.41z"/>
		<path class="st0" d="M1409.84,465.36c-3.51,0-7.42-0.69-11.73-2.07l0.79-2.42c3.55,1.36,7.17,2.04,10.88,2.04
			c3.7,0,6.55-0.66,8.55-1.98c1.96-1.3,2.96-3.55,3-6.75v-2.1l0.35-1.8c-2.23,0.91-4.22,1.55-5.97,1.92
			c-1.74,0.35-3.71,0.52-5.9,0.52c-1.84,0-3.61-0.36-5.31-1.09c-1.7-0.73-3.19-1.76-4.47-3.1c-1.3-1.36-2.31-3.03-3.04-5.02
			c-0.73-1.99-1.09-4.13-1.09-6.44c0-2.29,0.37-4.42,1.1-6.41c0.74-1.99,1.75-3.65,3.03-4.99c1.28-1.36,2.76-2.41,4.44-3.14
			s3.43-1.11,5.25-1.11c4.01,0,7.88,0.72,11.61,2.15l1.95-1.86l0.73,0.29v32.18c0,3.71-1.21,6.49-3.64,8.36
			S1414.44,465.36,1409.84,465.36z M1410.13,450.32c2.04,0,3.87-0.16,5.5-0.46c1.78-0.33,3.68-0.87,5.7-1.63V436.7v-10.65
			c-1.36-0.64-3.05-1.16-5.09-1.57c-2.04-0.41-4.14-0.61-6.31-0.61c-3.12,0-5.79,1.21-8,3.63c-2.21,2.43-3.32,5.62-3.32,9.6
			c0,1.96,0.31,3.79,0.95,5.48c0.63,1.7,1.49,3.11,2.57,4.23C1404.36,449.16,1407.03,450.32,1410.13,450.32z"/>
		<path class="st0" d="M1436.26,452.38h-2.7v-30.4l0.73-0.29l1.98,1.89c1.34-0.55,3.07-1.03,5.18-1.45c2.15-0.47,4.16-0.7,6.02-0.7
			c3.92,0,6.93,1.09,9.05,3.26c2.15,2.15,3.23,5.23,3.23,9.22v18.47H1457v-18.41c0-3.28-0.84-5.78-2.52-7.51
			c-1.68-1.72-4.07-2.59-7.17-2.59c-3.71,0-7.39,0.71-11.06,2.15V452.38z"/>
		<path class="st0" d="M1470.24,412.67c0.62,0,1.15,0.19,1.6,0.58c0.44,0.38,0.67,0.92,0.67,1.6c0,0.66-0.22,1.2-0.67,1.6
			c-0.45,0.41-0.98,0.61-1.6,0.61c-0.66,0-1.21-0.2-1.64-0.6c-0.44-0.4-0.66-0.93-0.66-1.61c0-0.68,0.22-1.21,0.66-1.6
			C1469.03,412.87,1469.58,412.67,1470.24,412.67z M1471.63,452.38h-2.73v-30.49h2.73V452.38z"/>
		<path class="st0" d="M1486.5,413.2v8.7h9.02v2.24h-9.05v19.43c0,0.91,0.01,1.52,0.03,1.83c0.04,1.36,0.17,2.3,0.41,2.82
			c0.37,0.87,0.83,1.46,1.39,1.75c0.79,0.37,1.78,0.55,2.97,0.55c1.63,0,3.34-0.45,5.12-1.36l0.9,2.12
			c-2.02,1.05-4.11,1.57-6.28,1.57c-2.43,0-4.25-0.57-5.47-1.72c-0.52-0.52-0.91-1.21-1.16-2.07c-0.27-0.87-0.45-1.69-0.52-2.47
			c-0.06-0.79-0.09-1.8-0.09-3.03v-19.43h-5.32v-2.24h5.32v-7.71L1486.5,413.2z"/>
		<path class="st0" d="M1503.57,412.67c0.62,0,1.15,0.19,1.6,0.58c0.44,0.38,0.67,0.92,0.67,1.6c0,0.66-0.22,1.2-0.67,1.6
			c-0.45,0.41-0.98,0.61-1.6,0.61c-0.66,0-1.21-0.2-1.64-0.6c-0.44-0.4-0.65-0.93-0.65-1.61c0-0.68,0.22-1.21,0.65-1.6
			C1502.37,412.87,1502.91,412.67,1503.57,412.67z M1504.97,452.38h-2.73v-30.49h2.73V452.38z"/>
		<path class="st0" d="M1534.47,430.74l3.81-8.85h3l-13.18,30.49h-2.94l-13.18-30.49h3.03l3.46,8.12l8.14,19.23L1534.47,430.74z"/>
		<path class="st0" d="M1545.32,437.32c0-2.56,0.39-4.87,1.17-6.93c0.79-2.06,1.89-3.74,3.3-5.03c2.85-2.62,6.45-3.93,10.79-3.93
			c2.85,0,5.4,0.59,7.65,1.77c2.29,1.17,4.11,2.97,5.47,5.41c1.4,2.43,2.1,5.32,2.1,8.7c0,2.37-0.4,4.55-1.21,6.55
			c-0.8,1.99-1.92,3.65-3.36,4.97c-2.93,2.67-6.5,4.01-10.7,4.01c-4.21,0-7.78-1.34-10.71-4.01c-1.42-1.32-2.52-2.98-3.32-4.97
			C1545.72,441.86,1545.32,439.68,1545.32,437.32z M1560.54,450.41c2.31,0,4.41-0.52,6.31-1.54c1.84-0.99,3.34-2.51,4.51-4.57
			c1.15-2.02,1.72-4.34,1.72-6.98c0-4.29-1.17-7.59-3.52-9.92c-2.33-2.35-5.33-3.52-9.02-3.52c-3.65,0-6.65,1.17-8.99,3.52
			c-2.35,2.35-3.52,5.65-3.52,9.92c0,3.95,1.19,7.12,3.58,9.51C1553.99,449.21,1556.97,450.41,1560.54,450.41z"/>
		<path class="st0" d="M1616.33,430.1l3.38-8.21h3.11l-18.39,43h-3.03l5.26-12.37l-13.03-30.63h3l3.08,7.65l8.46,20.16
			L1616.33,430.1z"/>
		<path class="st0" d="M1655.4,452.85c-4.31,0-7.88-1.36-10.71-4.07c-1.38-1.36-2.45-3.03-3.23-5c-0.78-1.98-1.16-4.15-1.16-6.52
			c0-4.77,1.36-8.59,4.1-11.46c2.78-2.91,6.31-4.36,10.62-4.36c3.76,0,7.03,1.1,9.81,3.29c1.42,1.09,2.53,2.56,3.33,4.41
			c0.8,1.85,1.21,3.93,1.21,6.24c0,0.66-0.05,1.5-0.15,2.53h-26.15c0.35,4.5,1.72,7.79,4.1,9.86c2.21,1.88,4.9,2.82,8.06,2.82
			c3.39,0,6.89-0.85,10.5-2.56l1.4,1.83c-1.4,0.79-3.21,1.5-5.44,2.13C1659.51,452.56,1657.42,452.85,1655.4,452.85z
			 M1643.07,435.71h23.68c0-3.82-1.06-6.76-3.17-8.81c-2.13-2.07-4.94-3.11-8.41-3.11c-3.45,0-6.27,1.03-8.44,3.08
			C1644.54,428.95,1643.32,431.89,1643.07,435.71z"/>
		<path class="st0" d="M1709.45,421.43c3.16,0,5.75,1.11,7.77,3.32c2,2.17,3,5.23,3,9.16v18.47h-2.74v-18.41
			c0-3.2-0.77-5.68-2.32-7.45c-1.53-1.76-3.47-2.65-5.82-2.65c-2.25,0-4.13,0.27-5.65,0.81c-1.55,0.57-3.31,1.47-5.26,2.74
			c0.79,1.88,1.19,4.04,1.19,6.49v18.47h-2.7v-18.41c0-3.22-0.73-5.7-2.18-7.45c-1.42-1.76-3.24-2.65-5.47-2.65
			c-3.32,0-6.57,0.71-9.78,2.15v26.36h-2.7v-30.4l0.73-0.29l1.98,1.89c1.26-0.55,2.79-1.03,4.6-1.45c1.84-0.47,3.62-0.7,5.32-0.7
			c3.38,0,6.01,1.34,7.91,4.01C1701.32,422.77,1705.36,421.43,1709.45,421.43z"/>
		<path class="st0" d="M1727.52,437.32c0-2.56,0.39-4.87,1.17-6.93c0.79-2.06,1.89-3.74,3.3-5.03c2.85-2.62,6.45-3.93,10.79-3.93
			c2.85,0,5.4,0.59,7.65,1.77c2.29,1.17,4.11,2.97,5.47,5.41c1.4,2.43,2.1,5.32,2.1,8.7c0,2.37-0.4,4.55-1.21,6.55
			c-0.8,1.99-1.92,3.65-3.36,4.97c-2.93,2.67-6.5,4.01-10.7,4.01c-4.21,0-7.78-1.34-10.71-4.01c-1.42-1.32-2.52-2.98-3.32-4.97
			C1727.92,441.86,1727.52,439.68,1727.52,437.32z M1742.74,450.41c2.31,0,4.41-0.52,6.31-1.54c1.84-0.99,3.34-2.51,4.51-4.57
			c1.15-2.02,1.72-4.34,1.72-6.98c0-4.29-1.17-7.59-3.52-9.92c-2.33-2.35-5.33-3.52-9.02-3.52c-3.65,0-6.65,1.17-8.99,3.52
			c-2.35,2.35-3.52,5.65-3.52,9.92c0,3.95,1.19,7.12,3.58,9.51C1736.19,449.21,1739.17,450.41,1742.74,450.41z"/>
		<path class="st0" d="M1788.67,448.2l0.96,2.09c-3.66,1.71-7.6,2.56-11.81,2.56c-3.78,0-7.06-1.39-9.83-4.16
			c-1.32-1.36-2.36-3.04-3.13-5.05c-0.77-2.01-1.15-4.17-1.15-6.5c0-2.44,0.38-4.68,1.13-6.72s1.8-3.71,3.11-5
			c2.7-2.66,5.93-3.99,9.71-3.99c3.3,0,7.07,0.77,11.32,2.3l-0.85,2.13c-3.72-1.32-7.16-1.98-10.3-1.98c-3.26,0-5.98,1.15-8.18,3.46
			c-2.17,2.29-3.26,5.55-3.26,9.77c0,2.02,0.31,3.88,0.93,5.59c0.62,1.71,1.47,3.12,2.56,4.25c2.21,2.31,4.93,3.46,8.15,3.46
			C1781.41,450.41,1784.95,449.67,1788.67,448.2z"/>
		<path class="st0" d="M1797.63,412.67c0.62,0,1.15,0.19,1.6,0.58c0.44,0.38,0.67,0.92,0.67,1.6c0,0.66-0.22,1.2-0.67,1.6
			c-0.45,0.41-0.98,0.61-1.6,0.61c-0.66,0-1.21-0.2-1.64-0.6c-0.44-0.4-0.65-0.93-0.65-1.61c0-0.68,0.22-1.21,0.65-1.6
			C1796.42,412.87,1796.97,412.67,1797.63,412.67z M1799.03,452.38h-2.73v-30.49h2.73V452.38z"/>
		<path class="st0" d="M1806.68,437.32c0-2.56,0.39-4.87,1.17-6.93c0.79-2.06,1.89-3.74,3.3-5.03c2.85-2.62,6.45-3.93,10.79-3.93
			c2.85,0,5.4,0.59,7.65,1.77c2.29,1.17,4.11,2.97,5.47,5.41c1.4,2.43,2.1,5.32,2.1,8.7c0,2.37-0.4,4.55-1.21,6.55
			c-0.8,1.99-1.92,3.65-3.36,4.97c-2.93,2.67-6.5,4.01-10.7,4.01c-4.21,0-7.78-1.34-10.71-4.01c-1.42-1.32-2.52-2.98-3.32-4.97
			C1807.08,441.86,1806.68,439.68,1806.68,437.32z M1821.9,450.41c2.31,0,4.41-0.52,6.31-1.54c1.84-0.99,3.34-2.51,4.51-4.57
			c1.15-2.02,1.72-4.34,1.72-6.98c0-4.29-1.17-7.59-3.52-9.92c-2.33-2.35-5.33-3.52-9.02-3.52c-3.65,0-6.65,1.17-8.99,3.52
			c-2.35,2.35-3.52,5.65-3.52,9.92c0,3.95,1.19,7.12,3.58,9.51C1815.35,449.21,1818.32,450.41,1821.9,450.41z"/>
		<path class="st0" d="M1847.46,452.38h-2.7v-30.4l0.73-0.29l1.98,1.89c1.34-0.55,3.07-1.03,5.18-1.45c2.15-0.47,4.16-0.7,6.02-0.7
			c3.92,0,6.93,1.09,9.05,3.26c2.15,2.15,3.23,5.23,3.23,9.22v18.47h-2.73v-18.41c0-3.28-0.84-5.78-2.52-7.51
			c-1.68-1.72-4.07-2.59-7.17-2.59c-3.71,0-7.39,0.71-11.06,2.15V452.38z"/>
		<path class="st0" d="M1891.98,452.85c-3.8,0-7.02-1.35-9.66-4.04c-1.28-1.32-2.28-2.98-3.01-4.99c-0.73-2.01-1.09-4.2-1.09-6.59
			c0-2.31,0.37-4.47,1.1-6.47c0.74-2.01,1.76-3.69,3.05-5.05c1.3-1.36,2.79-2.41,4.47-3.16c1.68-0.74,3.43-1.12,5.25-1.12
			c1.8,0,3.57,0.16,5.29,0.46c1.84,0.33,3.18,0.63,4.01,0.9c0.87,0.25,1.61,0.52,2.21,0.79l1.95-1.83l0.73,0.26v30.37h-2.71
			l0.35-1.98C1900.08,452.03,1896.09,452.85,1891.98,452.85z M1892.27,450.41c4.23,0,8.01-0.7,11.35-2.1v-10.88v-11.37
			c-0.93-0.46-2.48-0.95-4.65-1.45c-2.08-0.49-4.24-0.73-6.49-0.73c-3.16,0-5.87,1.2-8.15,3.6c-2.27,2.41-3.4,5.65-3.4,9.72
			c0,2.07,0.3,3.98,0.89,5.7c0.59,1.73,1.42,3.13,2.49,4.19C1886.47,449.3,1889.13,450.41,1892.27,450.41z"/>
		<path class="st0" d="M1918.98,409.59v42.79h-2.73v-42.79H1918.98z"/>
	</g>
	<g>
		<g>
			<g>
				<path class="st1" d="M664.47,191.7h15.14L791.14,343.6V191.7h15.14v176.62h-14.89L679.36,215.67v152.65h-14.89V191.7z"/>
				<path class="st1" d="M811.7,373.75h-23.06L684.79,232.24v141.51h-25.74V186.28h23.31l103.35,140.76V186.28h25.99V373.75z
					 M794.14,362.9h6.71V197.13h-4.29v163.03l-119.7-163.03h-6.97V362.9h4.03V199.11L794.14,362.9z"/>
			</g>
			<path class="st1" d="M870.74,362.77c-9.67-5.55-17.2-13.25-22.58-23.09c-5.39-9.84-8.07-21.07-8.07-33.68
				c0-12.44,2.65-23.59,7.95-33.43c5.3-9.84,12.7-17.49,22.2-22.96c9.5-5.46,20.39-8.2,32.67-8.2c12.78,0,23.93,2.57,33.43,7.69
				c9.5,5.13,16.82,12.41,21.95,21.83c5.13,9.42,7.7,20.35,7.7,32.8c0,3.53-0.09,6.14-0.25,7.82H854.72
				c1.17,14.13,6.18,25.32,15.01,33.56c8.83,8.24,20.31,12.36,34.44,12.36c8.74,0,17.16-1.68,25.23-5.05
				c8.07-3.36,14.21-7.82,18.42-13.37l9.84,8.58c-5.89,7.4-13.59,13.16-23.09,17.28c-9.51,4.12-19.73,6.18-30.66,6.18
				C891.47,371.1,880.41,368.32,870.74,362.77z M951.86,298.94c-0.17-13.29-4.71-24.01-13.62-32.17
				c-8.92-8.16-20.61-12.24-35.07-12.24c-13.62,0-24.77,4-33.43,11.98c-8.66,7.99-13.67,18.8-15.01,32.42H951.86z"/>
			<path class="st1" d="M1008.25,355.33c-9.34-9.84-14-23.34-14-40.5v-71.15h14.38v70.4c0,13.62,3.41,24.14,10.22,31.54
				c6.81,7.4,16.44,11.1,28.89,11.1c8.58,0,16.27-1.93,23.09-5.8c6.81-3.87,12.07-9.21,15.77-16.02c3.7-6.81,5.55-14.42,5.55-22.83
				v-68.38h14.38v124.64h-13.12l-0.25-22.46c-4.88,7.57-11.4,13.5-19.55,17.79c-8.16,4.29-17.2,6.43-27.12,6.43
				C1030.33,370.09,1017.59,365.17,1008.25,355.33z"/>
			<path class="st1" d="M1146.9,243.68h13.12l0.25,25.99c4.37-8.74,10.18-15.52,17.41-20.31c7.23-4.8,15.31-7.19,24.22-7.19
				c5.05,0,9.92,0.67,14.63,2.02c4.71,1.35,8.83,3.2,12.36,5.55l-6.31,12.36c-6.56-4.04-13.63-6.06-21.19-6.06
				s-14.42,2.14-20.56,6.43c-6.14,4.29-10.94,10.14-14.38,17.54c-3.45,7.4-5.17,15.73-5.17,24.98v63.33h-14.38V243.68z"/>
			<path class="st1" d="M1266.75,362.52c-9.76-5.55-17.37-13.29-22.83-23.21c-5.47-9.92-8.2-21.02-8.2-33.31
				c0-12.27,2.73-23.38,8.2-33.3c5.46-9.92,13.08-17.66,22.83-23.21c9.76-5.55,20.86-8.33,33.31-8.33c12.45,0,23.55,2.82,33.31,8.45
				c9.75,5.64,17.37,13.37,22.84,23.21c5.46,9.84,8.2,20.9,8.2,33.18c0,12.28-2.74,23.34-8.2,33.18
				c-5.47,9.84-13.08,17.58-22.84,23.21c-9.76,5.64-20.86,8.45-33.31,8.45C1287.6,370.85,1276.5,368.07,1266.75,362.52z
				 M1256.4,332.12c4.2,7.82,10.13,13.96,17.79,18.42c7.65,4.46,16.27,6.69,25.86,6.69c9.59,0,18.17-2.23,25.74-6.69
				c7.57-4.45,13.5-10.6,17.79-18.42c4.29-7.82,6.43-16.53,6.43-26.12c0-9.59-2.14-18.29-6.43-26.11
				c-4.29-7.82-10.22-13.96-17.79-18.42c-7.57-4.46-16.15-6.69-25.74-6.69c-9.59,0-18.21,2.23-25.86,6.69
				c-7.66,4.46-13.59,10.6-17.79,18.42c-4.21,7.82-6.31,16.53-6.31,26.11C1250.1,315.59,1252.2,324.29,1256.4,332.12z"/>
			<path class="st2" d="M1378.27,191.7h31.79l29.77,73.42l27.25,68.88l57.28-142.31h31.79l-72.92,176.62h-31.79L1378.27,191.7z"/>
			<path class="st2" d="M1573.82,195.11c3.36-3.28,7.65-4.92,12.87-4.92c5.38,0,9.8,1.64,13.25,4.92c3.45,3.28,5.17,7.53,5.17,12.74
				c0,4.88-1.73,8.96-5.17,12.24c-3.45,3.28-7.87,4.92-13.25,4.92c-5.22,0-9.51-1.64-12.87-4.92c-3.37-3.28-5.05-7.36-5.05-12.24
				C1568.77,202.64,1570.45,198.39,1573.82,195.11z M1572.56,243.68h28.26v124.64h-28.26V243.68z"/>
			<path class="st2" d="M1657.08,363.02c-9.25-5.38-16.53-12.99-21.82-22.83c-5.3-9.84-7.95-21.23-7.95-34.19
				c0-12.95,2.65-24.35,7.95-34.19c5.3-9.84,12.57-17.45,21.82-22.83c9.25-5.38,19.76-8.07,31.54-8.07c8.91,0,17.07,1.43,24.47,4.29
				c7.4,2.86,13.63,6.81,18.67,11.86V191.7h28.26v176.62h-25.23l-0.25-16.65c-4.88,6.06-11.32,10.81-19.3,14.26
				c-7.99,3.45-16.87,5.17-26.62,5.17C1676.84,371.1,1666.33,368.4,1657.08,363.02z M1666.16,334.39
				c7.07,7.32,16.23,10.98,27.5,10.98c11.27,0,20.44-3.66,27.5-10.98c7.07-7.32,10.6-16.78,10.6-28.39
				c0-11.61-3.53-21.07-10.6-28.38c-7.06-7.32-16.23-10.98-27.5-10.98c-11.27,0-20.44,3.66-27.5,10.98
				c-7.07,7.32-10.6,16.78-10.6,28.38C1655.56,317.61,1659.1,327.07,1666.16,334.39z"/>
			<path class="st2" d="M1815.91,362.9c-9.34-5.46-16.61-13.16-21.83-23.09c-5.21-9.92-7.82-21.19-7.82-33.81
				c0-12.61,2.61-23.88,7.82-33.81c5.21-9.92,12.49-17.62,21.83-23.09c9.34-5.46,20.06-8.2,32.17-8.2c9.59,0,18.33,1.73,26.24,5.17
				c7.9,3.45,14.3,8.2,19.18,14.26l0.25-16.65h25.23v124.64h-25.23l-0.25-16.65c-4.88,6.06-11.27,10.81-19.18,14.26
				c-7.91,3.45-16.65,5.17-26.24,5.17C1835.97,371.1,1825.24,368.36,1815.91,362.9z M1825.12,334.39
				c7.07,7.32,16.23,10.98,27.5,10.98c11.27,0,20.44-3.66,27.5-10.98c7.07-7.32,10.6-16.78,10.6-28.39
				c0-11.61-3.53-21.07-10.6-28.38c-7.06-7.32-16.23-10.98-27.5-10.98c-11.27,0-20.44,3.66-27.5,10.98
				c-7.07,7.32-10.6,16.78-10.6,28.38C1814.52,317.61,1818.05,327.07,1825.12,334.39z"/>
		</g>
	</g>
	<g>
		<circle class="st3" cx="177.09" cy="103.55" r="24.16"/>
		<circle class="st3" cx="131.05" cy="406.1" r="24.16"/>
		<circle class="st4" cx="131.05" cy="496" r="24.16"/>
		<circle class="st5" cx="101.57" cy="240.22" r="16"/>
		<circle class="st4" cx="170.04" cy="286.38" r="19.49"/>
		<circle class="st6" cx="177.41" cy="199.73" r="24.16"/>
		<circle class="st7" cx="77.4" cy="351.24" r="24.16"/>
		<g>
			<path class="st8" d="M268.54,272.05"/>
		</g>
		<g>
			<path class="st2" d="M381.53,213.06c-23.84,0-42.52-32.25-42.52-73.42s18.68-73.42,42.52-73.42s42.52,32.25,42.52,73.42
				S405.38,213.06,381.53,213.06z M381.53,80.28c-13.46,0-28.46,24.38-28.46,59.36s15,59.36,28.46,59.36S410,174.63,410,139.64
				S395,80.28,381.53,80.28z"/>
		</g>
		<g>
			<path class="st8" d="M119.82,508.22c6.77,6.34,17.3,5.88,23.41-0.83c6.44-7.08,6.21-17.27-0.62-23.43
				c-6.63-5.97-18.12-6.49-23.92,0.07C111.13,492.58,114.21,502.97,119.82,508.22z"/>
			<path class="st8" d="M144.29,414.35c6.63-6.95,6.2-17.4-1.01-24.17c-6.51-6.12-17.41-5.84-23.58,0.6
				c-6.57,6.85-6.23,17.56,0.76,24.27C127.17,421.5,137.76,421.18,144.29,414.35z"/>
			<path class="st8" d="M186.58,286.26c-0.17-9.15-7.73-16.42-16.9-16.27c-8.67,0.14-16.34,8.01-16.18,16.59
				c0.17,9.24,7.62,16.36,16.91,16.18C179.3,302.59,186.75,294.98,186.58,286.26z"/>
			<path class="st8" d="M76.51,333.86c-9.3,0.61-16.99,9.17-16.36,18.2c0.69,9.83,8.98,17.27,18.44,16.55
				c9.2-0.7,16.65-9.26,16.08-18.48C94.09,340.69,85.78,333.25,76.51,333.86z"/>
			<path class="st8" d="M102.25,225.69c-7.47-0.06-13.99,6.57-14.09,14.33c-0.1,7.83,6.49,14.63,14.28,14.72
				c7.57,0.09,13.88-6.7,13.97-14.99C116.48,231.96,110.24,225.76,102.25,225.69z"/>
			<path class="st8" d="M177.11,178.44c-12.59-0.01-22.29,9.68-22.36,22.33c-0.06,12.1,10.2,22.34,22.51,22.48
				c12.71,0.14,22.23-9.44,22.16-22.32C199.36,188.41,189.48,178.45,177.11,178.44z"/>
			<path class="st8" d="M177.17,81.05c-12.62-0.03-22.73,10.06-22.7,22.25c0.03,12.55,10.27,23.01,22.86,22.74
				c13.71-0.29,23.08-10.62,23.02-22.23C200.29,91.68,191.15,81.08,177.17,81.05z"/>
			<g>
				<path class="st9" d="M255.51,386.72l-3.31-2.34c-0.6-0.37-1.21-0.68-1.82-1c-0.44-0.23-0.87-0.45-1.31-0.7l-0.11-0.06
					c-0.41-0.25-0.82-0.47-1.24-0.68c0.01,63.55,0.03,125.67,0.05,177.7c3.6-0.54,7.37-1.46,11.35-2.79c3.2-1.09,6.46-2.42,9.8-3.98
					c-0.02-6.46-0.03-12.92-0.05-19.38c-0.03-45.02-0.07-90.05-0.1-135.07c-0.26-0.28-0.52-0.57-0.77-0.84
					C263.02,392.51,259.15,389.14,255.51,386.72z"/>
				<path class="st9" d="M268.78,535.86c-1.79,0.26-3.57,0.51-5.34,0.72c-5.44,0.66-10.61,1.1-15.58,1.34
					c0,1.21,0.01,2.35,0.02,3.38c0.03,6.69-1.27,13.01-3.87,18.95c-6.23,14.18-17.03,23.61-31.89,27.89
					c-30.27,8.71-65.81-9.8-76.13-39.5c-1.37-3.94-1.85-8.17-2.96-12.2c-1.93-7.04-6.04-10.18-13.21-9.02
					c-13.54,2.18-25.67-1.45-36.84-8.53c-17.66-11.2-27.78-26.88-28.58-47.8c3.5-0.38,6.99-0.75,10.5-1.05
					c7.01-0.61,14.63-3.95,20.85-1.12c6.15,2.8,10.7,9.13,15.95,13.92c0.24,0.22,0.44,0.48,0.69,0.68c1.87,1.45,2.23,3.07,1.51,5.47
					c-3.56,11.86,2.98,26.18,14.29,31.76c12.46,6.14,26.57,3.07,34.88-7.59c8.01-10.27,7.69-24.37-0.78-34.92
					c-8.01-9.98-23.18-13.02-35.04-6.71c-2.19,1.16-3.37,0.95-4.96-0.56c-4.44-4.24-8.84-8.53-13.49-12.52
					c-2.29-1.97-2.32-3.25-0.27-5.39c6.82-7.11,13.53-14.32,20.13-21.63c1.69-1.87,3.21-1.89,5.46-1.32
					c12.31,3.12,25.83-2.27,32.06-12.57c6.87-11.36,4.92-25.79-4.74-35.02c-9.86-9.42-24.21-10.6-35.57-2.78
					c-10.86,7.48-14.84,21.69-9.31,34.21c1.66,3.76,1.08,5.9-1.65,8.66c-8.07,8.14-15.95,16.48-23.68,24.94
					c-2.36,2.58-5.02,3.8-8.33,4.12c-5.5,0.53-11.05,0.85-16.56,1.31c1.45-5.28,3.72-10.32,6.91-15.15
					c5.27-7.96,2.51-14.92-6.64-17.42c-6.24-1.71-11.66-4.71-16.37-9c-21.58-19.71-25.58-53.98-8.73-77.86
					c6.18-8.76,14.07-15.65,24.96-18.61c3.36-0.91,6.75-3.23,7.53-7.4c0.76-4.08,0.41-7.65-3.4-10.5
					c-4.95-3.7-8.16-9.07-11.19-14.28c-7.09-12.17-9.17-25.49-6.63-39.25c3.82-20.65,14.32-36.56,34.55-44.42
					c10.49-4.08,12.81-11.44,5.42-20.07c-3.2-3.73-5.7-7.76-7.27-12.43c-11.83-35.04,16.57-74.18,54.04-74.43
					c10.83-0.07,14.22-3.44,13.98-14.23c-0.22-9.73,1.44-19.04,6.38-27.46c11.88-20.28,30.29-29.59,53.2-29.38
					c29.19,0.27,45.81,23.09,44.8,45.16c-0.39,8.54-0.08,17.11,0.06,25.67c0.04,2.43-0.55,3.43-3.21,3.41
					c-10.33-0.09-20.67,0.01-31,0.12c-1.99,0.02-2.82-0.52-3.71-2.59c-2.73-6.31-5.98-12.46-12.15-16.25
					c-8.02-4.93-16.13-7.77-26.12-5.77c-9.06,1.81-16.74,5.1-21.98,12.48c-7.8,11-9.15,23.21-2.89,35.25
					c6.09,11.7,15.92,18.48,29.67,18.61c14.96,0.14,27.4-7.78,33.12-21.52c0.84-2.03,1.66-3.1,4.05-3.07
					c10.17,0.11,20.35,0.11,30.52-0.05c2.84-0.04,3.5,1,3.49,3.65c-0.03,24.54,0.03,49.08,0.17,73.62c0.01,2.49-0.68,3.4-3.27,3.37
					c-10.17-0.1-20.35-0.07-30.52,0.05c-2.28,0.03-3.28-0.7-4.16-2.91c-6.71-16.79-23.08-25.91-39.92-22.18
					c-19.99,4.43-28.44,21.42-26.63,36.13c0.35,2.84-0.72,4.38-3.04,5.84c-5.59,3.53-11.14,7.16-16.43,11.12
					c-2.45,1.83-3.78,2.01-6.36-0.05c-7.89-6.32-16.82-7.17-25.89-2.79c-10.68,5.16-15.86,17.37-12.54,28.53
					c3.29,11.05,13.88,18.5,24.9,17.52c12.31-1.1,20.98-9.77,22.11-22.33c0.21-2.29,0.83-3.77,2.87-5.07
					c6.25-4,12.44-8.11,18.39-12.54c2.63-1.95,3.91-1.62,6.24,0.57c17.85,16.79,46.67,10.48,55.73-12.22
					c1.16-2.92,2.68-3.39,5.34-3.36c9.36,0.1,18.74,0.23,28.09-0.05c3.88-0.12,4.76,1.1,4.74,4.86
					c-0.16,31.49-0.09,62.97-0.09,94.46c0.06,0,0.12,0,0.18,0c0,1.94-0.01,3.88,0,5.81c0.04,10.49,0.05,37.28,0.07,69.16
					c-4.85-0.06-11.18,0.1-15.53,0.48c-6.84,0.61-12.21-0.68-17.41-6.17c-10.31-10.88-21.67-20.76-32.69-30.96
					c-2.29-2.12-3.34-4.35-3.32-7.54c0.06-6.78-0.13-13.57-0.56-20.33c-0.25-4.02,0.46-6.44,4.66-8.52
					c11.56-5.72,16.71-18.14,13.82-31.1c-2.49-11.15-12.53-19.52-24.7-20.57c-11.55-1-23.23,6.36-27.59,17.39
					c-4.53,11.45-1.83,25.31,8.93,31.29c9.23,5.13,10.21,11.7,9.5,20.3c-0.21,2.56-0.21,5.19,0.12,7.74c0.45,3.53-1.02,4.33-4.3,4.4
					c-16.3,0.32-32.61,0.78-48.9,1.42c-3.56,0.14-5.39-0.99-7.1-4.15c-7.7-14.25-25.01-19.2-38.71-11.36
					c-11.24,6.43-16.8,18.6-14.3,31.26c2.36,11.92,13.43,21.94,25.53,23.12c11.16,1.09,23.83-6.61,28.83-17.63
					c0.91-2.01,1.64-3.51,4.36-3.56c19.21-0.39,38.42-0.94,57.62-1.49c1.75-0.05,3.05,0.48,4.29,1.72
					c11.68,11.61,53.94,45.89,53.94,45.89s21.31-4.03,23.03-4.37c0.05-0.01,0.23-0.02,0.47-0.03c0,1.25,0,2.5,0,3.75
					c3,0.48,5.74,0.94,8.56,1.65c0.34,0.08,0.77,0.18,1.2,0.27c0.96,0.22,1.92,0.43,2.87,0.68l0.15,0.04l3.95,1.13
					c1.41,0.41,2.83,0.87,4.28,1.35c-0.03-12.45-0.05-24.9-0.08-37.36c-0.01-1.3-0.02-2.6-0.03-3.9c0-0.32-0.01-0.64-0.01-0.95
					c0-4.53,0.01-9.06,0.01-13.59c0-3.22,0-6.44-0.01-9.66c-0.01-2.27-0.02-4.54-0.03-6.81c0-0.32,0.01-0.64,0.01-0.95
					c0-4.53,0-9.05,0-13.58c0-0.32,0-0.64,0-0.95c-0.01-5.17-0.01-10.35-0.02-15.52c0-0.32,0-0.64-0.01-0.95
					c0.02-10.02,0.05-20.04,0.07-30.06c-0.06-2.26-0.17-4.51-0.17-6.77c0.11-71.03,0.23-142.07,0.34-213.1
					c-1.16-10.84-4.87-21.03-11.41-29.43C245.5,10.95,229.64,1.94,209.98,0.36c-13.47-1.08-26.63,0.19-39.4,4.77
					c-4.64,2.27-9.59,3.97-13.68,7.28c-0.08,0.34-0.29,0.48-0.63,0.42c-2.35,1.79-4.7,3.58-7.06,5.37
					c-0.04,0.31-0.21,0.48-0.51,0.51c-0.48,0.48-0.97,0.96-1.45,1.44c-0.04,0.29-0.2,0.45-0.49,0.46c-0.48,0.49-0.96,0.98-1.44,1.47
					c-0.03,0.29-0.19,0.46-0.49,0.48c-0.49,0.48-0.97,0.97-1.46,1.45c-0.03,0.3-0.19,0.46-0.48,0.49
					c-10.29,11.76-18.02,24.78-19.78,40.68c-0.43,3.86-2.05,6.5-6.33,6.79c-4.18,0.28-8.07,1.87-12.08,2.89
					c-22.02,8.38-37.32,24.15-47.63,44.75c-3.43,6.85-5.05,14.69-5.71,22.6c-1.12,13.36,0.75,26.15,6.01,38.45
					c1.05,2.44,0.54,4.22-1.75,5.72c-29.42,19.13-41.47,57.34-31.7,90.54c2.07,7.03,4.91,13.87,9.21,19.91
					c1.68,2.36,1.87,3.72-0.82,5.64c-16.4,11.7-26.71,27.51-30.77,47.25c-2.2,10.68-1.91,21.18,0.04,32.12
					c4.1,22.97,15.85,40.19,35.11,52.69c2.07,1.34,2.26,2.36,1.43,4.61c-1.28,3.47-2.32,7.03-3.12,10.64
					c-0.86,3.88-1.86,7.66-2.19,11.63c-0.98,11.96,1.34,24.9,5.59,36.09c3.95,10.4,10.05,19.96,17.82,27.93
					c7.67,7.87,16.95,14.16,27.12,18.32c7.15,2.93,14.73,4.79,22.43,5.52c6.86,0.65,8.68,2.95,10.99,8.86
					c12.41,31.72,36.36,49.2,69.85,53.6c21.97,2.89,41.96-2.43,59.11-16.69c13.29-11.05,21.28-25.19,22.84-42.65
					c0.09-0.96,0.32-1.9,0.48-2.85C268.94,544.99,268.84,540.42,268.78,535.86z M118.69,484.03c5.79-6.56,17.29-6.04,23.92-0.07
					c6.84,6.16,7.06,16.35,0.62,23.43c-6.11,6.71-16.64,7.17-23.41,0.83C114.21,502.97,111.13,492.58,118.69,484.03z M119.7,390.79
					c6.17-6.44,17.07-6.72,23.58-0.6c7.2,6.77,7.64,17.22,1.01,24.17c-6.53,6.83-17.11,7.15-23.82,0.71
					C113.47,408.35,113.14,397.64,119.7,390.79z M177.33,126.04c-12.6,0.27-22.84-10.19-22.86-22.74
					c-0.03-12.19,10.07-22.27,22.7-22.25c13.99,0.03,23.12,10.63,23.19,22.76C200.42,115.42,191.04,125.75,177.33,126.04z
					 M102.43,254.75c-7.78-0.09-14.37-6.89-14.28-14.72c0.1-7.76,6.62-14.4,14.09-14.33c7.99,0.07,14.23,6.27,14.15,14.06
					C116.32,248.05,110,254.83,102.43,254.75z M177.27,223.25c-12.31-0.14-22.57-10.38-22.51-22.48
					c0.06-12.65,9.77-22.34,22.36-22.33c12.37,0.01,22.25,9.97,22.32,22.49C199.49,213.81,189.98,223.4,177.27,223.25z
					 M78.58,368.61c-9.46,0.72-17.75-6.72-18.44-16.55c-0.63-9.03,7.06-17.58,16.36-18.2c9.27-0.61,17.58,6.83,18.16,16.26
					C95.23,359.35,87.79,367.91,78.58,368.61z M153.5,286.59c-0.16-8.58,7.51-16.45,16.18-16.59c9.17-0.15,16.73,7.12,16.9,16.27
					c0.17,8.72-7.28,16.32-16.17,16.5C161.12,302.95,153.67,295.82,153.5,286.59z"/>
			</g>
		</g>
		<g>
			<g>
				<path class="st2" d="M381.46,544.14c-11.53-16.59-24.73-31.42-39.18-44.7c-14.43-13.25-30.06-25-46.67-34.36
					c-8.28-4.7-16.86-8.7-25.58-11.87c-4.37-1.54-8.77-2.94-13.2-3.96l-3.31-0.81c-1.11-0.24-2.22-0.42-3.33-0.63
					c-2.21-0.47-4.43-0.73-6.65-1c-2.22-0.36-4.43-0.34-6.63-0.53c-2.2-0.1-4.39-0.06-6.59-0.08c-4.35,0.23-8.69,0.59-12.9,1.51
					l-3.16,0.66l-2.59,0.75c-0.85,0.28-1.68,0.67-2.52,0.98c-0.85,0.32-1.64,0.82-2.47,1.21c-3.24,1.75-6.27,4.08-8.89,6.82
					c-5.26,5.46-8.87,12.58-9.72,19.61l-0.19,2.63c-0.03,0.87,0.06,1.73,0.05,2.6c-0.02,0.4,0.06,0.95,0.12,1.46l0.17,1.56
					c0.08,1.06,0.31,2.03,0.46,3.05c0.72,4,1.87,7.73,3.48,11.04c3.26,6.58,8.37,11.52,15.42,14.84c6.97,3.39,15.56,5.17,24.5,5.77
					c8.97,0.62,18.33,0.16,27.73-0.93c9.41-1.11,18.87-2.85,28.29-4.99c18.84-4.37,37.59-10.14,55.95-16.93
					c9.2-3.42,18.23-7.03,27.13-11.06c9.03-4.03,18.05-8.25,27.12-12.49c18.17-8.42,36.54-16.99,55.58-24.5
					c19.03-7.57,38.72-13.92,59.31-17.96c10.35-1.93,21.09-3.12,32.05-2.7c10.9,0.43,22.17,2.51,32.53,7.01
					c10.33,4.45,20.07,11.13,27.37,20.36c3.63,4.53,6.71,9.86,8.75,15.4c2.02,5.57,3.17,11.41,3.37,17.34
					c0.18,5.91-0.52,11.94-2.5,17.7c-1.92,5.74-5.12,11.25-9.23,15.75c-4.09,4.52-9.06,8-14.19,10.66
					c-5.15,2.66-10.52,4.41-15.87,5.7c-5.36,1.28-10.72,2-16.04,2.38c-5.3,0.34-10.51,0.48-15.75,0.31
					c-10.46-0.28-20.82-1.5-30.98-3.41c-20.36-3.82-39.79-10.27-58.78-17.83c-18.88-7.84-37.15-17.25-54.19-28.63
					c-16.99-11.42-32.95-24.49-46.97-39.51c-1.74-1.89-3.52-3.74-5.23-5.65l-4.97-5.88l-2.48-2.95l-2.34-3.06l-4.67-6.13l-4.38-6.35
					c-1.47-2.12-2.92-4.23-4.26-6.35c-2.74-4.23-5.46-8.5-8.09-12.85c-10.49-17.34-20.33-35.69-25.64-56.11
					c-2.63-10.17-4.03-20.85-3.56-31.57c0.18-2.67,0.45-5.34,0.68-8.02c0.36-2.66,0.91-5.29,1.37-7.94c0.51-2.63,1.32-5.2,1.97-7.8
					c0.89-2.53,1.66-5.11,2.69-7.6c4.01-9.98,9.69-19.29,16.71-27.43c7.1-8.08,15.47-15.01,24.68-20.53
					c9.28-5.41,19.38-9.46,29.92-11.76c10.55-2.2,21.51-2.86,32.31-1.44c10.77,1.47,21.4,4.73,30.98,10.03
					c9.58,5.28,18.13,12.33,25.22,20.52c7.11,8.17,12.88,17.76,16.56,28.12c1.82,5.18,3.2,10.52,4.04,15.93
					c0.81,5.41,1.15,10.86,1.08,16.27c-0.21,10.82-2.03,21.46-5,31.61c-1.45,5.09-3.2,10.07-5.17,14.93
					c-1.95,4.88-4.11,9.64-6.47,14.3c-4.69,9.33-10.1,18.22-16.04,26.72c-5.96,8.5-12.32,16.54-19.19,24.31
					c-3.44,3.88-6.98,7.63-10.7,11.32c-1.97,1.89-4.06,4-7.46,5.99c-1.61,0.99-3.85,1.87-6.28,2.3c-2.51,0.38-5.22,0.15-7.45-0.6
					c-1.16-0.34-2.07-0.82-3.08-1.28c-0.87-0.49-1.69-1.01-2.51-1.55l-2.08-1.64c-0.64-0.55-1.19-1.11-1.79-1.67
					c-0.65-0.61-0.99-0.99-1.45-1.46l-1.31-1.35l-2.62-2.71c-3.49-3.63-6.98-7.27-10.45-10.98c-13.82-14.82-27.34-30.55-38.06-48.69
					c-5.33-9.06-9.79-18.79-12.99-29.03c-1.56-5.13-2.9-10.34-3.75-15.66c-0.5-2.58-0.91-5.44-1.05-8.27
					c-0.21-2.82-0.15-5.66-0.01-8.48c0.38-5.65,1.46-11.3,3.33-16.76c1.86-5.46,4.65-10.69,8.25-15.37c0.86-1.2,1.91-2.26,2.86-3.39
					c1.04-1.06,2.08-2.11,3.19-3.12c2.24-2.03,4.71-3.75,7.28-5.27c5.14-3.05,10.9-5,16.87-5.78c2.99-0.34,6.04-0.37,9.07-0.07
					c3.03,0.32,6.03,1.06,8.9,2.13l2.13,0.87c0.7,0.3,1.38,0.7,2.06,1.05c1.38,0.68,2.65,1.57,3.91,2.45
					c2.44,1.86,4.7,3.95,6.48,6.36c3.72,4.71,5.89,10.16,7.03,15.56c1.14,5.41,1.21,10.87,0.42,16.09l0,0.02l-4.4-0.06
					c0.26-2.63,1.39-4.99,2.82-6.76c1.42-1.79,3.07-3.21,4.59-4.5c3.02-2.59,6.15-5.18,9.65-7.52c6.88-4.63,15.89-8.36,25.84-6.51
					c2.45,0.49,4.91,1.34,7.13,2.53c2.23,1.18,4.25,2.67,6.06,4.33c3.61,3.33,6.33,7.44,8.2,11.77c3.73,8.48,4.16,17.96,2.36,26.55
					c-0.89,4.3-2.17,8.53-3.97,12.42c-0.92,1.91-1.7,3.89-2.79,5.69l-1.53,2.75c-0.51,0.91-1.12,1.76-1.67,2.65
					c-4.53,7-9.99,13.16-15.88,18.68c-11.91,10.94-25.4,19.41-39.16,27.05c6.28-4.75,12.41-9.69,18.25-14.89
					c5.84-5.18,11.37-10.67,16.3-16.55c4.93-5.87,9.24-12.17,12.49-18.84c0.39-0.84,0.84-1.65,1.19-2.5l1.04-2.55
					c0.75-1.67,1.21-3.45,1.79-5.16c1.06-3.43,1.6-6.9,1.82-10.38c0.25-6.95-0.7-13.67-2.95-19.77c-2.06-5.89-6.2-10.85-11.47-12.74
					c-2.72-0.94-5.95-1.27-9.29-0.87c-3.33,0.36-6.72,1.42-10.1,2.92c-3.37,1.49-6.68,3.43-10,5.48c-1.64,1.02-3.14,2.01-4.35,3.14
					c-1.18,1.12-2.12,2.39-1.99,3.74l-4.4-0.06l-0.01-0.02c-1.02-4.78-2.32-9.36-4.27-13.49c-1.97-4.1-4.4-7.79-7.42-10.55
					c-2.96-2.82-6.43-4.65-10.18-5.64c-3.74-1.05-7.77-1.12-11.7-0.46c-1.98,0.31-3.93,0.87-5.82,1.58
					c-1.9,0.68-3.74,1.58-5.45,2.64c-3.45,2.09-6.43,4.84-8.88,8.18c-4.94,6.58-7.52,15.12-7.94,23.8
					c-0.06,2.18-0.06,4.36,0.12,6.53c0.13,2.18,0.46,4.29,0.93,6.62c0.77,4.57,1.99,9.06,3.38,13.51
					c2.86,8.87,6.91,17.43,11.79,25.61c9.7,16.43,22.42,31.35,35.91,45.79c3.38,3.61,6.82,7.2,10.27,10.8l2.61,2.7l1.3,1.35
					c0.42,0.43,0.92,0.97,1.2,1.21c1.27,1.34,2.62,2.17,2.88,2.17c0.15,0.05-0.01-0.02-0.04,0.04c0.02-0.06,0.19,0.02,0.71-0.32
					c0.96-0.5,2.57-1.86,4.18-3.44c3.41-3.34,6.79-6.85,10.03-10.44c12.96-14.47,24.54-30.28,33.31-47.36
					c8.74-17.03,14.87-35.53,15.35-54.02c0.08-4.61-0.18-9.19-0.81-13.7c-0.67-4.5-1.78-8.91-3.25-13.19
					c-2.97-8.54-7.64-16.48-13.63-23.45c-5.97-7-13.07-12.93-21-17.4c-7.93-4.49-16.76-7.26-25.81-8.59
					c-9.07-1.28-18.41-0.79-27.47,1.01c-9.05,1.92-17.82,5.29-25.92,9.84c-8.04,4.67-15.36,10.56-21.6,17.45
					c-6.16,6.95-11.16,14.9-14.75,23.47c-0.92,2.13-1.6,4.36-2.42,6.53c-0.58,2.25-1.33,4.47-1.79,6.74
					c-0.41,2.29-0.92,4.56-1.26,6.86l-0.67,6.95c-0.51,9.32,0.6,18.75,2.88,28c4.6,18.54,13.59,36.13,23.83,52.98
					c2.55,4.23,5.2,8.42,7.9,12.61c1.33,2.12,2.71,4.15,4.09,6.14l4.15,6.03l4.47,5.8l2.23,2.9l2.37,2.79l4.75,5.58
					c1.64,1.81,3.34,3.57,5,5.36c13.36,14.29,28.79,26.57,45.17,37.31c16.43,10.69,34.06,19.52,52.27,26.84
					c18.28,7.11,37.22,12.91,56.36,16.11c9.57,1.61,19.2,2.55,28.77,2.61c4.78,0.07,9.59-0.16,14.28-0.55
					c4.66-0.42,9.25-1.14,13.62-2.28c8.76-2.2,16.66-6.22,21.81-12.19c2.56-2.99,4.4-6.36,5.58-10.15c1.2-3.76,1.57-7.87,1.34-11.94
					c-0.24-4.08-1.15-8.17-2.65-11.98c-1.54-3.82-3.62-7.22-6.33-10.45c-5.32-6.42-12.7-11.3-20.81-14.55
					c-8.14-3.3-16.95-4.72-26.05-4.87c-9.09-0.11-18.38,1.11-27.66,3.09c-18.66,4.18-37.16,10.55-55.18,18.21
					c-18.08,7.61-35.87,16.39-53.86,25.24c-9.01,4.39-18.08,8.81-27.28,13.09c-9.29,4.38-18.82,8.37-28.35,12.08
					c-19.11,7.39-38.62,13.86-58.83,18.58c-10.1,2.36-20.37,4.32-30.86,5.62c-10.5,1.27-21.23,1.91-32.27,1.22
					c-10.99-0.74-22.5-2.69-33.62-8.05c-5.52-2.68-10.9-6.22-15.51-10.76c-4.62-4.5-8.49-9.88-11.23-15.59
					c-2.75-5.72-4.48-11.69-5.49-17.54c-0.22-1.46-0.52-2.94-0.64-4.38l-0.22-2.18c-0.07-0.73-0.16-1.42-0.17-2.28
					c-0.03-1.64-0.13-3.28-0.06-4.91c0.12-1.62,0.22-3.25,0.39-4.86c1.72-12.91,7.87-24.44,16.5-33.35
					c4.33-4.46,9.35-8.3,14.94-11.28c1.43-0.69,2.81-1.47,4.3-2.06c1.49-0.58,2.96-1.21,4.49-1.7c1.54-0.45,3.12-0.92,4.64-1.31
					l4.21-0.8c11.24-2.05,22.74-2.12,33.7-0.32c2.74,0.44,5.48,0.89,8.15,1.56c1.34,0.31,2.69,0.6,4.02,0.94l3.95,1.13
					c5.25,1.54,10.31,3.5,15.28,5.59c2.47,1.06,4.88,2.24,7.32,3.36c2.36,1.25,4.73,2.48,7.06,3.77c4.61,2.65,9.14,5.39,13.47,8.39
					c17.36,11.95,32.45,26.48,45.32,42.54c6.43,8.04,12.27,16.51,17.4,25.36C373.77,525.32,378.15,534.58,381.46,544.14z"/>
			</g>
		</g>
	</g>
</g>
</svg>
