<?xml version="1.0" encoding="utf-8"?>
<!-- Generator: Adobe Illustrator 24.3.0, SVG Export Plug-In . SVG Version: 6.00 Build 0)  -->
<svg version="1.1" id="Layer_1" xmlns="http://www.w3.org/2000/svg" xmlns:xlink="http://www.w3.org/1999/xlink" x="0px" y="0px"
	 viewBox="0 0 2429.42 2429.43" style="enable-background:new 0 0 2429.42 2429.43;" xml:space="preserve">
<style type="text/css">
	.st0{fill:#666666;}
</style>
<path class="st0" d="M1299.97,145.05c135.59,0,255.43,0,380.49,0c28.19,333.42,235.77,484.76,541.28,549.08
	c0,118.28,0,242.44,0,369.18c-191.95-3.59-363.41-62.6-535.02-171.66c0,87.29,0.84,158.97-0.16,230.64
	c-3.01,215.51,8.84,432.62-13.24,646.2c-55.3,535.04-670.78,804.97-1110.49,494.85c-253.21-178.59-361.19-464.47-286.32-758.01
	c73.61-288.59,320.52-502.95,621.76-534.72c53.69-5.66,109.13,5.18,165.89,8.53c0,131.83,0,251.78,0,369.42
	c-63.46,6.35-128.1,3.62-187.14,20.48c-163.97,46.83-255.58,199.82-229.97,369.74c22.22,147.47,171.49,269.02,329.97,268.72
	c158.48-0.3,291.27-117.91,315.87-281.65c4.96-33.01,5.19-66.94,5.25-100.45c0.85-459.48,1.3-918.97,1.83-1378.45
	C1300.01,214.07,1299.97,181.18,1299.97,145.05z"/>
<path d="M1198.73,40.95c135.59,0,255.43,0,380.49,0c28.19,333.42,235.77,484.76,541.28,549.08c0,118.28,0,242.44,0,369.18
	c-191.95-3.59-363.41-62.6-535.02-171.66c0,87.29,0.84,158.97-0.16,230.64c-3.01,215.51,8.84,432.62-13.24,646.2
	c-55.3,535.04-670.78,804.97-1110.49,494.85c-253.21-178.59-361.19-464.47-286.32-758.01c73.61-288.59,320.52-502.95,621.76-534.72
	c53.69-5.66,109.13,5.18,165.89,8.53c0,131.83,0,251.78,0,369.42c-63.46,6.35-128.1,3.62-187.14,20.48
	c-163.97,46.83-255.58,199.82-229.97,369.74c22.22,147.47,171.49,269.02,329.97,268.72c158.48-0.3,291.27-117.91,315.87-281.65
	c4.96-33.01,5.19-66.94,5.25-100.45c0.85-459.48,1.3-918.97,1.83-1378.45C1198.76,109.96,1198.73,77.07,1198.73,40.95z"/>
</svg>
