<?xml version="1.0" encoding="utf-8"?>
<!-- Generator: Adobe Illustrator 24.3.0, SVG Export Plug-In . SVG Version: 6.00 Build 0)  -->
<svg version="1.1" id="Layer_1" xmlns="http://www.w3.org/2000/svg" xmlns:xlink="http://www.w3.org/1999/xlink" x="0px" y="0px"
	 viewBox="0 0 1986.55 1986.56" style="enable-background:new 0 0 1986.55 1986.56;" xml:space="preserve">
<style type="text/css">
	.st0{fill:#28E05C;}
</style>
<g>
	<g>
		<path class="st0" d="M1012.15,1794.61c-140.36-3.4-270.99-39.3-395.23-103.27c-19.72-10.16-48.28-12.66-70.1-7.49
			c-66.58,15.77-132.01,36.51-197.59,56.3c-37.75,11.4-73.98,14.77-104.19-16.04c-28.79-29.35-25.67-64.22-14.75-100.42
			c19.78-65.59,40.58-131,56.49-197.56c5.23-21.86,3.67-50.75-6.64-70.13C19.03,864.87,281.67,271.88,820.96,137.69
			c482.26-120,966.17,213.29,1028.01,708.01c56.03,448.25-240.25,852.48-685.64,933.62
			C1113.66,1788.36,1062.58,1789.7,1012.15,1794.61z M421.24,1535.54c4.77,1.84,9.54,3.67,14.31,5.51
			c24-6.5,49.02-10.51,71.79-19.96c66.28-27.51,124.14-16.83,186.07,20.02c132.94,79.1,279.57,101.27,431.64,77.4
			c328.21-51.51,578.78-351.83,567.27-676.83c-12.33-348.42-267.54-624.98-607.34-658.14c-510.16-49.79-890.35,462.34-684.69,931.18
			C447.96,1323.38,494.58,1420.33,421.24,1535.54z"/>
		<path class="st0" d="M1214.97,1342.73c-51.25-14.29-105.21-22.48-153.27-43.92c-218.08-97.31-366.54-256.87-421.11-493.85
			c-23.45-101.86,25.72-199,117.52-247.75c31.56-16.76,61.5-18.59,85.3,8.83c45.74,52.7,90.33,106.57,132.32,162.28
			c21.02,27.89,12,56.67-13.98,79.37c-4.48,3.91-9.53,7.16-14.29,10.74c-79.94,60.08-83.19,62.9-16.17,140.42
			c40.29,46.61,92.29,83.21,139.75,123.46c22.28,18.9,40.85,12.82,53.9-12.55c0.68-1.32,1.64-2.49,2.49-3.72
			c70.13-102.09,76.3-104,175.13-29.34c36.68,27.71,69.71,60.47,102.94,92.45c24.63,23.7,24.78,51.42,9.39,81.7
			C1376.84,1285.68,1297.97,1335.98,1214.97,1342.73z"/>
	</g>
</g>
</svg>
